<?xml version="1.0" encoding="iso-8859-1"?>
<!-- Generator: Adobe Illustrator 19.0.0, SVG Export Plug-In . SVG Version: 6.00 Build 0)  -->
<svg version="1.1" id="Capa_1" xmlns="http://www.w3.org/2000/svg" xmlns:xlink="http://www.w3.org/1999/xlink" x="0px" y="0px"
	 viewBox="0 0 512.008 512.008" style="enable-background:new 0 0 512.008 512.008;" xml:space="preserve">
<g>
	<g>
		<g fill="#f4f4f4">
			<path d="M512.004,345.6c-0.02-16.487-13.38-29.847-29.867-29.867h-64c-4.712-0.003-8.53-3.822-8.533-8.533v-93.867
				c0.032-17.229-12.804-31.771-29.904-33.878c-17.1-2.107-33.082,8.884-37.233,25.606c-0.71,1.217-1.099,2.596-1.13,4.005
				c-0.129,52.418-24.89,101.727-66.857,133.135c-1.913-0.549-3.891-0.841-5.881-0.868H21.541
				c-11.559-0.307-21.189,8.792-21.538,20.35V491.65c0.349,11.558,9.979,20.657,21.538,20.35H268.6
				c6.835,0.04,13.296-3.117,17.466-8.533h161.938c11.203,0.04,21.48-6.216,26.591-16.186c5.11-9.97,4.189-21.966-2.385-31.038
				c8.798-5.406,14.17-14.983,14.195-25.31c-0.034-5.024-1.351-9.957-3.827-14.329c9.136-2.81,16.352-9.859,19.375-18.927
				c3.023-9.068,1.48-19.037-4.143-26.767C506.607,365.504,511.979,355.927,512.004,345.6z M204.804,494.933H21.541
				c-2.425,0-4.471-1.5-4.471-3.283V361.683c0-1.783,2.046-3.283,4.471-3.283h183.262V494.933z M273.07,491.65
				c0,1.783-2.046,3.283-4.471,3.283H221.87V358.4H268.6c2.425,0,4.471,1.5,4.471,3.283V491.65z M482.137,358.4h-64
				c-4.713,0-8.533,3.82-8.533,8.533s3.82,8.533,8.533,8.533h55.467c7.069,0,12.8,5.731,12.8,12.8c0,7.069-5.731,12.8-12.8,12.8
				H401.07c-4.713,0-8.533,3.82-8.533,8.533s3.821,8.533,8.533,8.533h55.467c7.069,0,12.8,5.731,12.8,12.8
				c0,7.069-5.731,12.8-12.8,12.8h-64c-4.713,0-8.533,3.821-8.533,8.533c0,4.713,3.821,8.533,8.533,8.533h55.467
				c7.069,0,12.8,5.731,12.8,12.8c0,7.069-5.731,12.8-12.8,12.8H290.137V361.683c-0.014-2.931-0.698-5.819-2-8.445
				c42.836-33.703,68.517-84.669,70.115-139.151c0.024-0.261,0.152-0.487,0.152-0.754c0-9.426,7.641-17.067,17.067-17.067
				s17.067,7.641,17.067,17.067V307.2c0.015,14.132,11.468,25.585,25.6,25.6h64c7.069,0,12.8,5.731,12.8,12.8
				C494.937,352.669,489.206,358.4,482.137,358.4z"/>
			<path d="M162.137,324.267c89.544,0,162.133-72.59,162.133-162.133S251.681,0,162.137,0S0.004,72.59,0.004,162.133
				C0.105,251.635,72.635,324.165,162.137,324.267z M162.137,17.067c80.118,0,145.067,64.949,145.067,145.067
				S242.255,307.2,162.137,307.2S17.07,242.251,17.07,162.133C17.16,82.052,82.056,17.156,162.137,17.067z"/>
			<path d="M110.937,153.6c14.138,0,25.6-11.462,25.6-25.6s-11.461-25.6-25.6-25.6s-25.6,11.461-25.6,25.6
				C85.353,142.132,96.805,153.585,110.937,153.6z M110.937,119.467c4.713,0,8.533,3.82,8.533,8.533s-3.82,8.533-8.533,8.533
				s-8.533-3.82-8.533-8.533C102.408,123.289,106.226,119.471,110.937,119.467z"/>
			<path d="M204.804,153.6c14.138,0,25.6-11.462,25.6-25.6s-11.462-25.6-25.6-25.6s-25.6,11.461-25.6,25.6
				C179.219,142.132,190.672,153.585,204.804,153.6z M204.804,119.467c4.713,0,8.533,3.82,8.533,8.533s-3.821,8.533-8.533,8.533
				s-8.533-3.82-8.533-8.533C196.275,123.289,200.093,119.471,204.804,119.467z"/>
			<path d="M114.962,207.659c-1.841-4.334-6.845-6.359-11.182-4.525s-6.37,6.834-4.543,11.175
				c10.691,25.267,35.464,41.685,62.9,41.685c27.436,0,52.209-16.417,62.9-41.685c1.827-4.34-0.206-9.34-4.543-11.175
				s-9.341,0.19-11.182,4.525c-5.199,12.278-14.97,22.053-27.246,27.258c-19.198,8.121-41.404,3.779-56.129-10.975
				C121.257,219.278,117.529,213.747,114.962,207.659z"/>
			<path d="M443.737,51.2c4.713,0,8.533-3.82,8.533-8.533v-8.533c0.001-2.264-0.897-4.435-2.498-6.035
				c-1.601-1.601-3.772-2.499-6.035-2.498c-2.264-0.001-4.435,0.897-6.035,2.498c-1.601,1.601-2.499,3.772-2.498,6.035v8.533
				C435.204,47.38,439.024,51.2,443.737,51.2z"/>
			<path d="M443.737,68.267c-4.713,0-8.533,3.82-8.533,8.533v8.533c0,4.713,3.82,8.533,8.533,8.533s8.533-3.821,8.533-8.533V76.8
				C452.27,72.087,448.45,68.267,443.737,68.267z"/>
			<path d="M418.137,68.267h8.533c4.713,0,8.533-3.82,8.533-8.533s-3.82-8.533-8.533-8.533h-8.533c-4.713,0-8.533,3.82-8.533,8.533
				S413.424,68.267,418.137,68.267z"/>
			<path d="M460.804,68.267h8.533c4.713,0,8.533-3.82,8.533-8.533s-3.82-8.533-8.533-8.533h-8.533c-4.713,0-8.533,3.82-8.533,8.533
				S456.091,68.267,460.804,68.267z"/>
		</g>
	</g>
</g>
<g>
</g>
<g>
</g>
<g>
</g>
<g>
</g>
<g>
</g>
<g>
</g>
<g>
</g>
<g>
</g>
<g>
</g>
<g>
</g>
<g>
</g>
<g>
</g>
<g>
</g>
<g>
</g>
<g>
</g>
</svg>
