<svg id="Capa_1" enable-background="new 0 0 510.038 510.038" height="512" viewBox="0 0 510.038 510.038" width="512" xmlns="http://www.w3.org/2000/svg"><g fill="#f4f4f4"><g><path d="m472.574 39.372c-1.725 0-3.123 1.398-3.123 3.123s1.398 3.123 3.123 3.123 3.123-1.398 3.123-3.123-1.398-3.123-3.123-3.123z"/><path d="m483.021 49.061c-1.725 0-3.123 1.398-3.123 3.124 0 1.725 1.398 3.123 3.123 3.123s3.123-1.398 3.123-3.123c0-1.726-1.398-3.124-3.123-3.124z"/><path d="m472.574 59.507c-1.725 0-3.123 1.398-3.123 3.123s1.398 3.123 3.123 3.123 3.123-1.398 3.123-3.123c0-1.724-1.398-3.123-3.123-3.123z"/><path d="m483.021 69.196c-1.725 0-3.123 1.398-3.123 3.124 0 1.725 1.398 3.123 3.123 3.123s3.123-1.398 3.123-3.123-1.398-3.124-3.123-3.124z"/><path d="m472.574 79.643c-1.725 0-3.123 1.398-3.123 3.124 0 1.725 1.398 3.123 3.123 3.123s3.123-1.398 3.123-3.123c0-1.726-1.398-3.124-3.123-3.124z"/><path d="m483.021 89.331c-1.725 0-3.123 1.399-3.123 3.124s1.398 3.123 3.123 3.123 3.123-1.398 3.123-3.123-1.398-3.124-3.123-3.124z"/><path d="m472.574 99.779c-1.725 0-3.123 1.398-3.123 3.123s1.398 3.123 3.123 3.123 3.123-1.398 3.123-3.123-1.398-3.123-3.123-3.123z"/><path d="m452.438 19.236c-1.725 0-3.123 1.399-3.123 3.124s1.398 3.124 3.123 3.124 3.123-1.399 3.123-3.124-1.398-3.124-3.123-3.124z"/><path d="m462.885 28.925c-1.725 0-3.123 1.398-3.123 3.124 0 1.725 1.398 3.123 3.123 3.123s3.123-1.398 3.123-3.123c0-1.726-1.398-3.124-3.123-3.124z"/><path d="m452.438 39.372c-1.725 0-3.123 1.398-3.123 3.123s1.398 3.123 3.123 3.123 3.123-1.398 3.123-3.123-1.398-3.123-3.123-3.123z"/><path d="m462.885 49.061c-1.725 0-3.123 1.398-3.123 3.124 0 1.725 1.398 3.123 3.123 3.123s3.123-1.398 3.123-3.123c0-1.726-1.398-3.124-3.123-3.124z"/><path d="m452.438 59.507c-1.725 0-3.123 1.398-3.123 3.123s1.398 3.123 3.123 3.123 3.123-1.398 3.123-3.123c0-1.724-1.398-3.123-3.123-3.123z"/><path d="m462.885 69.196c-1.725 0-3.123 1.398-3.123 3.124 0 1.725 1.398 3.123 3.123 3.123s3.123-1.398 3.123-3.123-1.398-3.124-3.123-3.124z"/><path d="m452.438 79.643c-1.725 0-3.123 1.398-3.123 3.124 0 1.725 1.398 3.123 3.123 3.123s3.123-1.398 3.123-3.123c0-1.726-1.398-3.124-3.123-3.124z"/><path d="m462.885 89.331c-1.725 0-3.123 1.399-3.123 3.124s1.398 3.123 3.123 3.123 3.123-1.398 3.123-3.123-1.398-3.124-3.123-3.124z"/><path d="m452.438 99.779c-1.725 0-3.123 1.398-3.123 3.123s1.398 3.123 3.123 3.123 3.123-1.398 3.123-3.123-1.398-3.123-3.123-3.123z"/><path d="m462.885 109.467c-1.725 0-3.123 1.399-3.123 3.123 0 1.725 1.398 3.123 3.123 3.123s3.123-1.398 3.123-3.123c0-1.724-1.398-3.123-3.123-3.123z"/><path d="m452.438 119.914c-1.725 0-3.123 1.398-3.123 3.124 0 1.725 1.398 3.123 3.123 3.123s3.123-1.398 3.123-3.123c0-1.726-1.398-3.124-3.123-3.124z"/><path d="m442.749 28.925c-1.725 0-3.123 1.398-3.123 3.124 0 1.725 1.398 3.123 3.123 3.123s3.123-1.398 3.123-3.123c.001-1.726-1.398-3.124-3.123-3.124z"/><path d="m442.749 49.061c-1.725 0-3.123 1.398-3.123 3.124 0 1.725 1.398 3.123 3.123 3.123s3.123-1.398 3.123-3.123c.001-1.726-1.398-3.124-3.123-3.124z"/><path d="m442.749 69.196c-1.725 0-3.123 1.398-3.123 3.124 0 1.725 1.398 3.123 3.123 3.123s3.123-1.398 3.123-3.123c.001-1.725-1.398-3.124-3.123-3.124z"/><path d="m442.749 89.331c-1.725 0-3.123 1.399-3.123 3.124s1.398 3.123 3.123 3.123 3.123-1.398 3.123-3.123c.001-1.725-1.398-3.124-3.123-3.124z"/><path d="m442.749 109.467c-1.725 0-3.123 1.399-3.123 3.123 0 1.725 1.398 3.123 3.123 3.123s3.123-1.398 3.123-3.123c.001-1.724-1.398-3.123-3.123-3.123z"/><path d="m422.613 28.925c-1.725 0-3.123 1.398-3.123 3.124 0 1.725 1.398 3.123 3.123 3.123s3.124-1.398 3.124-3.123c0-1.726-1.399-3.124-3.124-3.124z"/><path d="m412.167 39.372c-1.725 0-3.123 1.398-3.123 3.123s1.398 3.123 3.123 3.123 3.123-1.398 3.123-3.123-1.398-3.123-3.123-3.123z"/><path d="m402.468 55.317c1.725 0 3.123-1.398 3.123-3.123s-1.398-3.124-3.123-3.124-3.123 1.398-3.123 3.124c0 1.725 1.398 3.123 3.123 3.123z"/><path d="m422.613 49.061c-1.725 0-3.123 1.398-3.123 3.124 0 1.725 1.398 3.123 3.123 3.123s3.124-1.398 3.124-3.123c0-1.726-1.399-3.124-3.124-3.124z"/><path d="m412.167 59.507c-1.725 0-3.123 1.398-3.123 3.123s1.398 3.123 3.123 3.123 3.123-1.398 3.123-3.123c0-1.724-1.398-3.123-3.123-3.123z"/><path d="m422.613 69.196c-1.725 0-3.123 1.398-3.123 3.124 0 1.725 1.398 3.123 3.123 3.123s3.124-1.398 3.124-3.123-1.399-3.124-3.124-3.124z"/><path d="m412.167 79.643c-1.725 0-3.123 1.398-3.123 3.124 0 1.725 1.398 3.123 3.123 3.123s3.123-1.398 3.123-3.123c0-1.726-1.398-3.124-3.123-3.124z"/><path d="m422.613 89.331c-1.725 0-3.123 1.399-3.123 3.124s1.398 3.123 3.123 3.123 3.124-1.398 3.124-3.123-1.399-3.124-3.124-3.124z"/><path d="m412.167 99.779c-1.725 0-3.123 1.398-3.123 3.123s1.398 3.123 3.123 3.123 3.123-1.398 3.123-3.123-1.398-3.123-3.123-3.123z"/><path d="m422.613 109.467c-1.725 0-3.123 1.399-3.123 3.123 0 1.725 1.398 3.123 3.123 3.123s3.124-1.398 3.124-3.123c0-1.724-1.399-3.123-3.124-3.123z"/><path d="m412.167 119.914c-1.725 0-3.123 1.398-3.123 3.124 0 1.725 1.398 3.123 3.123 3.123s3.123-1.398 3.123-3.123c0-1.726-1.398-3.124-3.123-3.124z"/><path d="m422.613 129.603c-1.725 0-3.123 1.398-3.123 3.124s1.398 3.123 3.123 3.123 3.124-1.398 3.124-3.123-1.399-3.124-3.124-3.124z"/><path d="m412.167 140.05c-1.725 0-3.123 1.398-3.123 3.123s1.398 3.123 3.123 3.123 3.123-1.398 3.123-3.123-1.398-3.123-3.123-3.123z"/><path d="m422.613 149.739c-1.725 0-3.123 1.399-3.123 3.124s1.398 3.123 3.123 3.123 3.124-1.398 3.124-3.123-1.399-3.124-3.124-3.124z"/><path d="m412.167 160.186c-1.725 0-3.123 1.398-3.123 3.124s1.398 3.123 3.123 3.123 3.123-1.398 3.123-3.123-1.398-3.124-3.123-3.124z"/><path d="m422.613 169.874c-1.725 0-3.123 1.398-3.123 3.124 0 1.725 1.398 3.123 3.123 3.123s3.124-1.398 3.124-3.123-1.399-3.124-3.124-3.124z"/><path d="m412.167 180.321c-1.725 0-3.123 1.398-3.123 3.123s1.398 3.123 3.123 3.123 3.123-1.398 3.123-3.123c0-1.724-1.398-3.123-3.123-3.123z"/><path d="m422.613 190.01c-1.725 0-3.123 1.399-3.123 3.124s1.398 3.123 3.123 3.123 3.124-1.398 3.124-3.123-1.399-3.124-3.124-3.124z"/><path d="m412.167 200.457c-1.725 0-3.123 1.398-3.123 3.123s1.398 3.124 3.123 3.124 3.123-1.398 3.123-3.124c0-1.725-1.398-3.123-3.123-3.123z"/><path d="m422.613 210.145c-1.725 0-3.123 1.398-3.123 3.124s1.398 3.123 3.123 3.123 3.124-1.398 3.124-3.123-1.399-3.124-3.124-3.124z"/><path d="m412.167 220.592c-1.725 0-3.123 1.398-3.123 3.124s1.398 3.123 3.123 3.123 3.123-1.398 3.123-3.123-1.398-3.124-3.123-3.124z"/><path d="m422.613 230.281c-1.725 0-3.123 1.398-3.123 3.124s1.398 3.123 3.123 3.123 3.124-1.398 3.124-3.123-1.399-3.124-3.124-3.124z"/><path d="m412.167 240.728c-1.725 0-3.123 1.398-3.123 3.124s1.398 3.123 3.123 3.123 3.123-1.398 3.123-3.123-1.398-3.124-3.123-3.124z"/><path d="m422.613 250.417c-1.725 0-3.123 1.398-3.123 3.123s1.398 3.123 3.123 3.123 3.124-1.398 3.124-3.123-1.399-3.123-3.124-3.123z"/><path d="m412.167 260.864c-1.725 0-3.123 1.398-3.123 3.124s1.398 3.123 3.123 3.123 3.123-1.398 3.123-3.123-1.398-3.124-3.123-3.124z"/><path d="m422.613 270.552c-1.725 0-3.123 1.399-3.123 3.124s1.398 3.123 3.123 3.123 3.124-1.398 3.124-3.123-1.399-3.124-3.124-3.124z"/><path d="m412.167 281c-1.725 0-3.123 1.398-3.123 3.123s1.398 3.123 3.123 3.123 3.123-1.398 3.123-3.123-1.398-3.123-3.123-3.123z"/><path d="m422.613 290.688c-1.725 0-3.123 1.399-3.123 3.124s1.398 3.123 3.123 3.123 3.124-1.398 3.124-3.123-1.399-3.124-3.124-3.124z"/><path d="m412.167 301.135c-1.725 0-3.123 1.399-3.123 3.124s1.398 3.123 3.123 3.123 3.123-1.398 3.123-3.123-1.398-3.124-3.123-3.124z"/><path d="m422.613 310.824c-1.725 0-3.123 1.398-3.123 3.124s1.398 3.123 3.123 3.123 3.124-1.398 3.124-3.123-1.399-3.124-3.124-3.124z"/><path d="m412.167 321.271c-1.725 0-3.123 1.398-3.123 3.124s1.398 3.123 3.123 3.123 3.123-1.398 3.123-3.123-1.398-3.124-3.123-3.124z"/><path d="m422.613 330.959c-1.725 0-3.123 1.398-3.123 3.124s1.398 3.123 3.123 3.123 3.124-1.398 3.124-3.123-1.399-3.124-3.124-3.124z"/><path d="m412.167 341.406c-1.725 0-3.123 1.398-3.123 3.124 0 1.725 1.398 3.123 3.123 3.123s3.123-1.398 3.123-3.123-1.398-3.124-3.123-3.124z"/><path d="m422.613 351.095c-1.725 0-3.123 1.398-3.123 3.123s1.398 3.123 3.123 3.123 3.124-1.398 3.124-3.123c0-1.724-1.399-3.123-3.124-3.123z"/><path d="m412.167 361.542c-1.725 0-3.123 1.398-3.123 3.124s1.398 3.123 3.123 3.123 3.123-1.398 3.123-3.123-1.398-3.124-3.123-3.124z"/><path d="m422.613 371.23c-1.725 0-3.123 1.399-3.123 3.124s1.398 3.123 3.123 3.123 3.124-1.398 3.124-3.123-1.399-3.124-3.124-3.124z"/><path d="m412.167 381.678c-1.725 0-3.123 1.398-3.123 3.123s1.398 3.123 3.123 3.123 3.123-1.398 3.123-3.123-1.398-3.123-3.123-3.123z"/><path d="m422.613 391.366c-1.725 0-3.123 1.398-3.123 3.123s1.398 3.123 3.123 3.123 3.124-1.398 3.124-3.123c0-1.724-1.399-3.123-3.124-3.123z"/><path d="m412.167 401.813c-1.725 0-3.123 1.398-3.123 3.124s1.398 3.123 3.123 3.123 3.123-1.398 3.123-3.123-1.398-3.124-3.123-3.124z"/><path d="m422.613 411.502c-1.725 0-3.123 1.398-3.123 3.124s1.398 3.123 3.123 3.123 3.124-1.398 3.124-3.123-1.399-3.124-3.124-3.124z"/><path d="m412.167 421.949c-1.725 0-3.123 1.398-3.123 3.124s1.398 3.123 3.123 3.123 3.123-1.398 3.123-3.123-1.398-3.124-3.123-3.124z"/><path d="m422.613 431.638c-1.725 0-3.123 1.398-3.123 3.124s1.398 3.123 3.123 3.123 3.124-1.398 3.124-3.123-1.399-3.124-3.124-3.124z"/><path d="m412.167 442.084c-1.725 0-3.123 1.398-3.123 3.124s1.398 3.123 3.123 3.123 3.123-1.398 3.123-3.123-1.398-3.124-3.123-3.124z"/><path d="m412.167 462.22c-1.725 0-3.123 1.398-3.123 3.123s1.398 3.123 3.123 3.123 3.123-1.398 3.123-3.123c0-1.724-1.398-3.123-3.123-3.123z"/><path d="m402.478 69.196c-1.725 0-3.123 1.398-3.123 3.124 0 1.725 1.398 3.123 3.123 3.123s3.123-1.398 3.123-3.123-1.398-3.124-3.123-3.124z"/><path d="m402.478 89.331c-1.725 0-3.123 1.399-3.123 3.124s1.398 3.123 3.123 3.123 3.123-1.398 3.123-3.123-1.398-3.124-3.123-3.124z"/><path d="m402.478 109.467c-1.725 0-3.123 1.399-3.123 3.123 0 1.725 1.398 3.123 3.123 3.123s3.123-1.398 3.123-3.123c0-1.724-1.398-3.123-3.123-3.123z"/><path d="m402.478 129.603c-1.725 0-3.123 1.398-3.123 3.124s1.398 3.123 3.123 3.123 3.123-1.398 3.123-3.123-1.398-3.124-3.123-3.124z"/><path d="m402.478 149.739c-1.725 0-3.123 1.399-3.123 3.124s1.398 3.123 3.123 3.123 3.123-1.398 3.123-3.123-1.398-3.124-3.123-3.124z"/><path d="m402.478 169.874c-1.725 0-3.123 1.398-3.123 3.124 0 1.725 1.398 3.123 3.123 3.123s3.123-1.398 3.123-3.123-1.398-3.124-3.123-3.124z"/><path d="m402.478 190.01c-1.725 0-3.123 1.399-3.123 3.124s1.398 3.123 3.123 3.123 3.123-1.398 3.123-3.123-1.398-3.124-3.123-3.124z"/><path d="m402.478 210.145c-1.725 0-3.123 1.398-3.123 3.124s1.398 3.123 3.123 3.123 3.123-1.398 3.123-3.123-1.398-3.124-3.123-3.124z"/><path d="m402.478 230.281c-1.725 0-3.123 1.398-3.123 3.124s1.398 3.123 3.123 3.123 3.123-1.398 3.123-3.123-1.398-3.124-3.123-3.124z"/><path d="m402.478 250.417c-1.725 0-3.123 1.398-3.123 3.123s1.398 3.123 3.123 3.123 3.123-1.398 3.123-3.123-1.398-3.123-3.123-3.123z"/><path d="m402.478 270.552c-1.725 0-3.123 1.399-3.123 3.124s1.398 3.123 3.123 3.123 3.123-1.398 3.123-3.123-1.398-3.124-3.123-3.124z"/><path d="m402.478 290.688c-1.725 0-3.123 1.399-3.123 3.124s1.398 3.123 3.123 3.123 3.123-1.398 3.123-3.123-1.398-3.124-3.123-3.124z"/><path d="m402.478 310.824c-1.725 0-3.123 1.398-3.123 3.124s1.398 3.123 3.123 3.123 3.123-1.398 3.123-3.123-1.398-3.124-3.123-3.124z"/><path d="m402.478 330.959c-1.725 0-3.123 1.398-3.123 3.124s1.398 3.123 3.123 3.123 3.123-1.398 3.123-3.123-1.398-3.124-3.123-3.124z"/><path d="m402.478 351.095c-1.725 0-3.123 1.398-3.123 3.123s1.398 3.123 3.123 3.123 3.123-1.398 3.123-3.123c0-1.724-1.398-3.123-3.123-3.123z"/><path d="m392.031 361.542c-1.725 0-3.123 1.398-3.123 3.124s1.398 3.123 3.123 3.123 3.123-1.398 3.123-3.123-1.398-3.124-3.123-3.124z"/><path d="m402.478 371.23c-1.725 0-3.123 1.399-3.123 3.124s1.398 3.123 3.123 3.123 3.123-1.398 3.123-3.123-1.398-3.124-3.123-3.124z"/><path d="m392.031 381.678c-1.725 0-3.123 1.398-3.123 3.123s1.398 3.123 3.123 3.123 3.123-1.398 3.123-3.123c.001-1.725-1.398-3.123-3.123-3.123z"/><path d="m402.478 391.366c-1.725 0-3.123 1.398-3.123 3.123s1.398 3.123 3.123 3.123 3.123-1.398 3.123-3.123c0-1.724-1.398-3.123-3.123-3.123z"/><path d="m392.031 401.813c-1.725 0-3.123 1.398-3.123 3.124s1.398 3.123 3.123 3.123 3.123-1.398 3.123-3.123-1.398-3.124-3.123-3.124z"/><path d="m402.478 411.502c-1.725 0-3.123 1.398-3.123 3.124s1.398 3.123 3.123 3.123 3.123-1.398 3.123-3.123-1.398-3.124-3.123-3.124z"/><path d="m392.031 421.949c-1.725 0-3.123 1.398-3.123 3.124s1.398 3.123 3.123 3.123 3.123-1.398 3.123-3.123-1.398-3.124-3.123-3.124z"/><path d="m402.478 431.638c-1.725 0-3.123 1.398-3.123 3.124s1.398 3.123 3.123 3.123 3.123-1.398 3.123-3.123-1.398-3.124-3.123-3.124z"/><path d="m392.031 442.084c-1.725 0-3.123 1.398-3.123 3.124s1.398 3.123 3.123 3.123 3.123-1.398 3.123-3.123-1.398-3.124-3.123-3.124z"/><path d="m402.478 451.773c-1.725 0-3.123 1.398-3.123 3.124 0 1.725 1.398 3.123 3.123 3.123s3.123-1.398 3.123-3.123-1.398-3.124-3.123-3.124z"/><path d="m392.031 462.22c-1.725 0-3.123 1.398-3.123 3.123s1.398 3.123 3.123 3.123 3.123-1.398 3.123-3.123c.001-1.724-1.398-3.123-3.123-3.123z"/><path d="m402.478 471.909c-1.725 0-3.123 1.399-3.123 3.124s1.398 3.123 3.123 3.123 3.123-1.398 3.123-3.123-1.398-3.124-3.123-3.124z"/><path d="m392.031 482.355c-1.725 0-3.123 1.399-3.123 3.124s1.398 3.124 3.123 3.124 3.123-1.398 3.123-3.124c.001-1.725-1.398-3.124-3.123-3.124z"/><path d="m382.342 371.23c-1.725 0-3.123 1.399-3.123 3.124s1.398 3.123 3.123 3.123 3.123-1.398 3.123-3.123c.001-1.725-1.398-3.124-3.123-3.124z"/><path d="m371.896 381.678c-1.725 0-3.123 1.398-3.123 3.123s1.398 3.123 3.123 3.123 3.123-1.398 3.123-3.123-1.398-3.123-3.123-3.123z"/><path d="m382.342 391.366c-1.725 0-3.123 1.398-3.123 3.123s1.398 3.123 3.123 3.123 3.123-1.398 3.123-3.123c.001-1.724-1.398-3.123-3.123-3.123z"/><path d="m371.896 401.813c-1.725 0-3.123 1.398-3.123 3.124s1.398 3.123 3.123 3.123 3.123-1.398 3.123-3.123-1.398-3.124-3.123-3.124z"/><path d="m382.342 411.502c-1.725 0-3.123 1.398-3.123 3.124s1.398 3.123 3.123 3.123 3.123-1.398 3.123-3.123-1.398-3.124-3.123-3.124z"/><path d="m371.896 421.949c-1.725 0-3.123 1.398-3.123 3.124s1.398 3.123 3.123 3.123 3.123-1.398 3.123-3.123-1.398-3.124-3.123-3.124z"/><path d="m382.342 431.638c-1.725 0-3.123 1.398-3.123 3.124s1.398 3.123 3.123 3.123 3.123-1.398 3.123-3.123-1.398-3.124-3.123-3.124z"/><path d="m371.896 442.084c-1.725 0-3.123 1.398-3.123 3.124s1.398 3.123 3.123 3.123 3.123-1.398 3.123-3.123-1.398-3.124-3.123-3.124z"/><path d="m382.342 451.773c-1.725 0-3.123 1.398-3.123 3.124 0 1.725 1.398 3.123 3.123 3.123s3.123-1.398 3.123-3.123c.001-1.725-1.398-3.124-3.123-3.124z"/><path d="m371.896 462.22c-1.725 0-3.123 1.398-3.123 3.123s1.398 3.123 3.123 3.123 3.123-1.398 3.123-3.123c0-1.724-1.398-3.123-3.123-3.123z"/><path d="m382.342 471.909c-1.725 0-3.123 1.399-3.123 3.124s1.398 3.123 3.123 3.123 3.123-1.398 3.123-3.123c.001-1.725-1.398-3.124-3.123-3.124z"/><path d="m371.896 482.355c-1.725 0-3.123 1.399-3.123 3.124s1.398 3.124 3.123 3.124 3.123-1.398 3.123-3.124c0-1.725-1.398-3.124-3.123-3.124z"/><path d="m351.76 381.678c-1.725 0-3.123 1.398-3.123 3.123s1.398 3.123 3.123 3.123 3.123-1.398 3.123-3.123-1.398-3.123-3.123-3.123z"/><path d="m362.207 391.366c-1.725 0-3.123 1.398-3.123 3.123s1.398 3.123 3.123 3.123 3.123-1.398 3.123-3.123c0-1.724-1.398-3.123-3.123-3.123z"/><path d="m351.76 401.813c-1.725 0-3.123 1.398-3.123 3.124s1.398 3.123 3.123 3.123 3.123-1.398 3.123-3.123-1.398-3.124-3.123-3.124z"/><path d="m362.207 411.502c-1.725 0-3.123 1.398-3.123 3.124s1.398 3.123 3.123 3.123 3.123-1.398 3.123-3.123-1.398-3.124-3.123-3.124z"/><path d="m351.76 421.949c-1.725 0-3.123 1.398-3.123 3.124s1.398 3.123 3.123 3.123 3.123-1.398 3.123-3.123-1.398-3.124-3.123-3.124z"/><path d="m362.207 431.638c-1.725 0-3.123 1.398-3.123 3.124s1.398 3.123 3.123 3.123 3.123-1.398 3.123-3.123-1.398-3.124-3.123-3.124z"/><path d="m351.76 442.084c-1.725 0-3.123 1.398-3.123 3.124s1.398 3.123 3.123 3.123 3.123-1.398 3.123-3.123-1.398-3.124-3.123-3.124z"/><path d="m362.207 451.773c-1.725 0-3.123 1.398-3.123 3.124 0 1.725 1.398 3.123 3.123 3.123s3.123-1.398 3.123-3.123-1.398-3.124-3.123-3.124z"/><path d="m351.76 462.22c-1.725 0-3.123 1.398-3.123 3.123s1.398 3.123 3.123 3.123 3.123-1.398 3.123-3.123c0-1.724-1.398-3.123-3.123-3.123z"/><path d="m362.207 471.909c-1.725 0-3.123 1.399-3.123 3.124s1.398 3.123 3.123 3.123 3.123-1.398 3.123-3.123-1.398-3.124-3.123-3.124z"/><path d="m351.76 482.355c-1.725 0-3.123 1.399-3.123 3.124s1.398 3.124 3.123 3.124 3.123-1.398 3.123-3.124c0-1.725-1.398-3.124-3.123-3.124z"/><path d="m362.207 492.044c-1.725 0-3.123 1.399-3.123 3.124s1.398 3.123 3.123 3.123 3.123-1.398 3.123-3.123-1.398-3.124-3.123-3.124z"/><path d="m342.071 391.366c-1.725 0-3.123 1.398-3.123 3.123s1.399 3.123 3.123 3.123c1.725 0 3.123-1.398 3.123-3.123 0-1.724-1.398-3.123-3.123-3.123z"/><path d="m331.624 401.813c-1.725 0-3.123 1.398-3.123 3.124s1.398 3.123 3.123 3.123 3.123-1.398 3.123-3.123-1.398-3.124-3.123-3.124z"/><path d="m342.071 411.502c-1.725 0-3.123 1.398-3.123 3.124s1.399 3.123 3.123 3.123c1.725 0 3.123-1.398 3.123-3.123s-1.398-3.124-3.123-3.124z"/><path d="m331.624 421.949c-1.725 0-3.123 1.398-3.123 3.124s1.398 3.123 3.123 3.123 3.123-1.398 3.123-3.123-1.398-3.124-3.123-3.124z"/><path d="m342.071 431.638c-1.725 0-3.123 1.398-3.123 3.124s1.399 3.123 3.123 3.123c1.725 0 3.123-1.398 3.123-3.123s-1.398-3.124-3.123-3.124z"/><path d="m331.624 442.084c-1.725 0-3.123 1.398-3.123 3.124s1.398 3.123 3.123 3.123 3.123-1.398 3.123-3.123-1.398-3.124-3.123-3.124z"/><path d="m342.071 451.773c-1.725 0-3.123 1.398-3.123 3.124 0 1.725 1.399 3.123 3.123 3.123 1.725 0 3.123-1.398 3.123-3.123s-1.398-3.124-3.123-3.124z"/><path d="m331.624 462.22c-1.725 0-3.123 1.398-3.123 3.123s1.398 3.123 3.123 3.123 3.123-1.398 3.123-3.123c.001-1.724-1.398-3.123-3.123-3.123z"/><path d="m342.071 471.909c-1.725 0-3.123 1.399-3.123 3.124s1.399 3.123 3.123 3.123c1.725 0 3.123-1.398 3.123-3.123s-1.398-3.124-3.123-3.124z"/><path d="m331.624 482.355c-1.725 0-3.123 1.399-3.123 3.124s1.398 3.124 3.123 3.124 3.123-1.398 3.123-3.124c.001-1.725-1.398-3.124-3.123-3.124z"/><path d="m342.071 492.044c-1.725 0-3.123 1.399-3.123 3.124s1.399 3.123 3.123 3.123c1.725 0 3.123-1.398 3.123-3.123s-1.398-3.124-3.123-3.124z"/><path d="m321.935 391.366c-1.725 0-3.123 1.398-3.123 3.123s1.398 3.123 3.123 3.123 3.123-1.398 3.123-3.123c.001-1.724-1.398-3.123-3.123-3.123z"/><path d="m311.488 401.813c-1.725 0-3.123 1.398-3.123 3.124s1.398 3.123 3.123 3.123 3.123-1.398 3.123-3.123-1.397-3.124-3.123-3.124z"/><path d="m321.935 411.502c-1.725 0-3.123 1.398-3.123 3.124s1.398 3.123 3.123 3.123 3.123-1.398 3.123-3.123-1.398-3.124-3.123-3.124z"/><path d="m311.488 421.949c-1.725 0-3.123 1.398-3.123 3.124s1.398 3.123 3.123 3.123 3.123-1.398 3.123-3.123-1.397-3.124-3.123-3.124z"/><path d="m321.935 431.638c-1.725 0-3.123 1.398-3.123 3.124s1.398 3.123 3.123 3.123 3.123-1.398 3.123-3.123-1.398-3.124-3.123-3.124z"/><path d="m311.488 442.084c-1.725 0-3.123 1.398-3.123 3.124s1.398 3.123 3.123 3.123 3.123-1.398 3.123-3.123-1.397-3.124-3.123-3.124z"/><path d="m321.935 451.773c-1.725 0-3.123 1.398-3.123 3.124 0 1.725 1.398 3.123 3.123 3.123s3.123-1.398 3.123-3.123c.001-1.725-1.398-3.124-3.123-3.124z"/><path d="m311.488 462.22c-1.725 0-3.123 1.398-3.123 3.123s1.398 3.123 3.123 3.123 3.123-1.398 3.123-3.123c.001-1.724-1.397-3.123-3.123-3.123z"/><path d="m321.935 471.909c-1.725 0-3.123 1.399-3.123 3.124s1.398 3.123 3.123 3.123 3.123-1.398 3.123-3.123c.001-1.725-1.398-3.124-3.123-3.124z"/><path d="m301.8 431.638c-1.725 0-3.123 1.398-3.123 3.124s1.398 3.123 3.123 3.123 3.123-1.398 3.123-3.123-1.398-3.124-3.123-3.124z"/><path d="m301.8 451.773c-1.725 0-3.123 1.398-3.123 3.124 0 1.725 1.398 3.123 3.123 3.123s3.123-1.398 3.123-3.123-1.398-3.124-3.123-3.124z"/><path d="m480.241 20.781c-12.898-13.048-30.066-20.408-48.386-20.752-.16-.019-.324-.029-.489-.029h-271.643c-46.911 0-85.076 38.165-85.076 85.076v285.333c-16.985 1.165-32.784 8.393-44.849 20.597-13.014 13.165-20.182 30.612-20.182 49.126s7.167 35.961 20.182 49.126c12.9 13.05 30.074 20.409 48.396 20.752.157.019.317.028.479.028h271.642c.977 0 6.953-.126 7.45-.346 43.434-3.788 77.627-40.331 77.627-84.73v-285.332c16.984-1.165 32.783-8.393 44.848-20.597 13.014-13.165 20.182-30.612 20.182-49.127.001-18.514-7.166-35.96-20.181-49.125zm-401.152 481.203c-.12-.012-.241-.019-.364-.021-33.665-.428-61.054-28.165-61.054-61.831 0-33.667 27.389-61.404 61.054-61.831.071-.001.138-.019.209-.023l244.281-1.08c-22.332 11.847-37.585 35.334-37.585 62.326 0 27.097 15.372 50.657 37.845 62.46zm348.25-77.022c0 9.432-1.72 18.464-4.837 26.822-1.672.06-3.012 1.425-3.012 3.112 0 .821.324 1.562.842 2.119-7.28 15.831-19.77 28.783-35.268 36.648-.533-.961-1.545-1.62-2.722-1.62-1.725 0-3.123 1.399-3.123 3.124 0 .379.078.738.202 1.074-8.134 3.331-16.953 5.322-26.19 5.668-14.82-.685-28.298-6.567-38.676-15.849.036-.189.057-.383.057-.582 0-1.725-1.398-3.124-3.123-3.124-.233 0-.456.033-.674.082-10.609-11.198-17.129-26.306-17.129-42.913 0-8.706 1.796-16.999 5.028-24.536.182 1.552 1.486 2.76 3.087 2.76 1.725 0 3.123-1.398 3.123-3.123s-1.398-3.124-3.123-3.124c-.634 0-1.222.192-1.715.517 6.139-12.46 16.304-22.591 28.794-28.677-.233.438-.378.929-.378 1.46 0 1.725 1.398 3.123 3.123 3.123s3.123-1.398 3.123-3.123c0-1.466-1.014-2.688-2.377-3.023 7.333-3.03 15.359-4.713 23.774-4.713 1.299 0 2.442-.626 3.178-1.581.469 1.133 1.583 1.932 2.886 1.932 1.725 0 3.124-1.398 3.124-3.123s-1.398-3.124-3.124-3.124c-.845 0-1.609.339-2.172.885-.441-1.746-2.009-3.044-3.892-3.044-.736 0-1.464.033-2.194.055-.183-.025-.364-.055-.554-.055-.006 0-.012 0-.018 0l-270.677 1.196v-285.129c0-42.47 34.551-77.022 77.022-77.022h271.219c.123.013.247.021.372.022 3.438.043 6.805.386 10.089.977-2.477 3.732-4.627 7.626-6.465 11.646-.553-.876-1.523-1.463-2.636-1.463-1.725 0-3.123 1.399-3.123 3.124s1.398 3.124 3.123 3.124c.22 0 .435-.024.642-.068-3.708 9.628-5.624 19.913-5.624 30.521v81.013c0 .064.016.123.019.186v287.826zm17.127-294.841c-.493-.326-1.082-.518-1.717-.518-1.064 0-2 .534-2.564 1.346-1.586.252-3.187.46-4.81.587v-75.6c0-16.255 4.959-31.676 14.356-44.781 7.266 2.396 13.94 6.118 19.752 10.861-.013.115-.033.227-.033.344 0 1.725 1.398 3.124 3.123 3.124.249 0 .488-.037.72-.092 9.406 9.041 15.988 20.995 18.228 34.353-1.135.468-1.936 1.583-1.936 2.887 0 1.556 1.14 2.835 2.628 3.073.095 1.391.155 2.79.155 4.203 0 3.392-.294 6.717-.828 9.966-1.145.463-1.955 1.582-1.955 2.893 0 .855.345 1.629.903 2.193-5.65 22.3-23.527 39.917-46.022 45.161z"/><path d="m168.861 128.276c.555.261 1.138.385 1.713.385 1.511 0 2.96-.855 3.646-2.312 2.1-4.459 5.305-8.38 9.268-11.341 1.782-1.331 2.148-3.854.816-5.636-1.33-1.782-3.854-2.147-5.636-.816-5.017 3.746-9.075 8.713-11.735 14.362-.948 2.011-.084 4.411 1.928 5.358z"/><path d="m240.401 173.31c0-2.224-1.803-4.027-4.027-4.027h-16.766c-2.224 0-4.027 1.803-4.027 4.027s1.803 4.027 4.027 4.027h16.766c2.224 0 4.027-1.803 4.027-4.027z"/><path d="m205.882 173.31c0-2.224-1.803-4.027-4.027-4.027h-.365c-4.909 0-9.59-1.143-13.911-3.398-1.971-1.028-4.405-.264-5.433 1.708-1.029 1.972-.264 4.404 1.708 5.433 5.406 2.82 11.505 4.311 17.637 4.311h.365c2.223 0 4.026-1.803 4.026-4.027z"/><path d="m224.439 305.933s-.001 0-.002 0l-16.767.008c-2.224.001-4.026 1.805-4.025 4.029s1.804 4.025 4.027 4.025h.002l16.767-.008c2.224-.001 4.026-1.805 4.025-4.029s-1.803-4.025-4.027-4.025z"/><path d="m172.759 161.648c.746 0 1.502-.208 2.176-.642 1.87-1.204 2.41-3.696 1.206-5.566-2.668-4.144-4.285-8.938-4.677-13.861-.176-2.216-2.111-3.877-4.334-3.695-2.217.177-3.871 2.117-3.695 4.334.497 6.244 2.549 12.324 5.933 17.582.771 1.197 2.067 1.848 3.391 1.848z"/><path d="m258.959 305.917c-.001 0-.001 0-.002 0l-16.767.008c-2.224.001-4.026 1.806-4.025 4.029.001 2.224 1.804 4.025 4.027 4.025h.002l16.767-.008c2.224-.001 4.026-1.805 4.025-4.029-.001-2.223-1.804-4.025-4.027-4.025z"/><path d="m370.053 284.513c.01-.318.015-.638.015-.958 0-6.21-1.862-12.182-5.384-17.271-1.265-1.829-3.775-2.285-5.603-1.02-1.829 1.266-2.285 3.774-1.019 5.603 2.586 3.736 3.952 8.124 3.952 12.688 0 .234-.003.467-.011.698-.072 2.223 1.672 4.084 3.895 4.155.044.001.089.002.132.002 2.164.001 3.953-1.718 4.023-3.897z"/><path d="m356.694 298.018c-3.083 3.622-7.315 6.207-11.914 7.279-2.166.505-3.513 2.67-3.007 4.836.433 1.858 2.089 3.113 3.918 3.113.303 0 .611-.034.919-.106 6.265-1.461 12.025-4.977 16.218-9.901 1.441-1.693 1.238-4.235-.455-5.677-1.694-1.441-4.235-1.237-5.679.456z"/><path d="m347.298 262.346c1.73 0 3.329-1.124 3.854-2.867.641-2.13-.565-4.376-2.695-5.018-2.832-.853-5.782-1.285-8.767-1.285h-9.049c-2.224 0-4.027 1.803-4.027 4.027s1.803 4.027 4.027 4.027h9.049c2.198 0 4.366.317 6.445.943.387.118.778.173 1.163.173z"/><path d="m282.396 257.204c0-2.224-1.803-4.027-4.027-4.027h-12.355c-1.202 0-2.4-.122-3.564-.363-2.18-.455-4.309.95-4.76 3.128-.45 2.178.95 4.309 3.128 4.76 1.7.351 3.448.53 5.196.53h12.355c2.224-.001 4.027-1.804 4.027-4.028z"/><path d="m197.363 109.285c.16 0 .322-.009.485-.029 1.2-.144 2.425-.217 3.642-.217h12.633c2.224 0 4.027-1.803 4.027-4.027s-1.803-4.027-4.027-4.027h-12.633c-1.536 0-3.085.092-4.602.274-2.208.266-3.784 2.27-3.519 4.479.246 2.045 1.984 3.547 3.994 3.547z"/><path d="m293.477 305.901s-.001 0-.002 0l-16.766.008c-2.224.001-4.026 1.805-4.025 4.029.001 2.223 1.804 4.025 4.027 4.025h.002l16.766-.008c2.224-.001 4.026-1.805 4.025-4.029-.001-2.223-1.804-4.025-4.027-4.025z"/><path d="m327.997 305.885c-.001 0-.001 0-.002 0l-16.766.008c-2.224.001-4.026 1.805-4.025 4.029.001 2.223 1.804 4.025 4.027 4.025h.002l16.766-.008c2.224-.001 4.026-1.805 4.025-4.029s-1.804-4.025-4.027-4.025z"/><path d="m296.122 261.231h16.766c2.224 0 4.027-1.803 4.027-4.027s-1.803-4.027-4.027-4.027h-16.766c-2.224 0-4.027 1.803-4.027 4.027s1.803 4.027 4.027 4.027z"/><path d="m282.254 181.383c-2.046.872-2.999 3.237-2.127 5.284.808 1.898 1.218 3.918 1.219 6.004 0 2.411-.543 4.716-1.611 6.852-.996 1.988-.192 4.408 1.796 5.404.579.29 1.194.428 1.801.428 1.476 0 2.897-.814 3.604-2.225 1.636-3.265 2.465-6.783 2.465-10.46-.001-3.177-.628-6.259-1.864-9.159-.871-2.047-3.238-3.001-5.283-2.128z"/><path d="m266.396 109.039h16.766c2.224 0 4.027-1.803 4.027-4.027s-1.803-4.027-4.027-4.027h-16.766c-2.224 0-4.027 1.803-4.027 4.027-.001 2.224 1.803 4.027 4.027 4.027z"/><path d="m231.877 109.039h16.767c2.224 0 4.027-1.803 4.027-4.027s-1.803-4.027-4.027-4.027h-16.767c-2.224 0-4.027 1.803-4.027 4.027-.001 2.224 1.802 4.027 4.027 4.027z"/><path d="m300.915 109.039h16.766c2.224 0 4.027-1.803 4.027-4.027s-1.803-4.027-4.027-4.027h-16.766c-2.224 0-4.027 1.803-4.027 4.027s1.803 4.027 4.027 4.027z"/><path d="m250.1 173.31c0 2.224 1.803 4.027 4.027 4.027h11.887c1.298 0 2.585.162 3.824.48.336.086.674.128 1.005.128 1.794 0 3.43-1.208 3.897-3.026.554-2.154-.744-4.349-2.898-4.902-1.895-.486-3.855-.733-5.828-.733h-11.887c-2.224-.001-4.027 1.802-4.027 4.026z"/><path d="m256.037 219.181c2.934-2.044 6.385-3.124 9.978-3.124 1.488 0 2.979-.141 4.43-.42 2.185-.419 3.615-2.53 3.196-4.714-.42-2.184-2.528-3.616-4.714-3.196-.953.183-1.932.275-2.912.275-5.247 0-10.289 1.58-14.581 4.569-1.825 1.27-2.274 3.781-1.003 5.606.782 1.123 2.035 1.726 3.308 1.726.793.001 1.597-.233 2.298-.722z"/><path d="m248.695 231.124c.304-2.203-1.236-4.235-3.439-4.539-2.21-.307-4.236 1.236-4.539 3.439-.16 1.157-.241 2.34-.242 3.517v2.151c0 4.644 1.26 9.192 3.644 13.153.756 1.256 2.088 1.951 3.454 1.951.707 0 1.423-.186 2.073-.577 1.905-1.147 2.521-3.622 1.374-5.527-1.63-2.707-2.492-5.82-2.492-9v-2.149c.002-.809.058-1.623.167-2.419z"/><path d="m189.711 305.95c-.001 0-.001 0-.002 0l-6.172.002c-2.398-14.052-14.657-24.785-29.382-24.785-16.44 0-29.815 13.374-29.815 29.814 0 16.439 13.375 29.814 29.815 29.814 15.419 0 28.141-11.765 29.662-26.79l5.896-.002c2.224-.001 4.026-1.805 4.025-4.029-.001-2.223-1.803-4.024-4.027-4.024zm-35.556 26.792c-11.999 0-21.76-9.761-21.76-21.76s9.761-21.76 21.76-21.76 21.76 9.762 21.76 21.76-9.761 21.76-21.76 21.76z"/><path d="m383.654 128.794c0-3.093-1.204-6-3.391-8.187l-15.057-15.057 15.057-15.058c4.515-4.514 4.515-11.859.001-16.373-4.515-4.514-11.86-4.514-16.375 0l-15.057 15.057-15.058-15.058c-4.514-4.511-11.858-4.513-16.374.001-4.515 4.514-4.515 11.859 0 16.373l14.053 14.054c-.018.155-.047.306-.047.465 0 .473.097.92.246 1.342l-14.253 14.253c-2.187 2.187-3.391 5.094-3.391 8.187s1.204 6 3.391 8.187c2.187 2.186 5.094 3.391 8.187 3.391 3.092 0 5.999-1.204 8.187-3.391l15.058-15.058 15.057 15.058c2.188 2.186 5.095 3.39 8.187 3.39s5.999-1.204 8.187-3.391c2.188-2.185 3.392-5.092 3.392-8.185zm-9.085 2.491c-1.331 1.333-3.654 1.332-4.985.001l-17.905-17.905c-.785-.786-1.817-1.179-2.847-1.179-1.031 0-2.062.393-2.847 1.179l-17.905 17.904c-1.331 1.333-3.654 1.332-4.985.001-1.374-1.374-1.374-3.609 0-4.982l17.264-17.264h3.633c2.224 0 4.027-1.803 4.027-4.027s-1.803-4.027-4.027-4.027h-4.709l-16.187-16.188c-1.374-1.374-1.374-3.609 0-4.982 1.374-1.375 3.61-1.374 4.985-.001l17.905 17.905c1.571 1.572 4.123 1.572 5.694 0l17.905-17.904c1.374-1.374 3.609-1.376 4.985-.001 1.374 1.374 1.374 3.609 0 4.983l-17.905 17.905c-1.573 1.573-1.573 4.123 0 5.695l17.905 17.905c1.372 1.373 1.372 3.609-.001 4.982z"/></g></g></svg>