<svg id="Capa_1" enable-background="new 0 0 508.128 508.128" height="512" viewBox="0 0 508.128 508.128" width="512" xmlns="http://www.w3.org/2000/svg"><g><g fill="#f4f4f4"><path d="m486.634 205.582c1.726 0 3.126-1.399 3.126-3.125 0-1.727-1.399-3.126-3.126-3.126-1.726 0-3.126 1.399-3.126 3.126.001 1.726 1.4 3.125 3.126 3.125z"/><path d="m486.634 225.735c1.726 0 3.126-1.399 3.126-3.126 0-1.725-1.399-3.125-3.126-3.125-1.726 0-3.126 1.4-3.126 3.125.001 1.726 1.4 3.126 3.126 3.126z"/><path d="m486.634 245.887c1.726 0 3.126-1.399 3.126-3.126 0-1.726-1.399-3.125-3.126-3.125-1.726 0-3.126 1.399-3.126 3.125.001 1.727 1.4 3.126 3.126 3.126z"/><path d="m486.634 266.039c1.726 0 3.126-1.399 3.126-3.126s-1.399-3.127-3.126-3.127c-1.726 0-3.126 1.4-3.126 3.127.001 1.727 1.4 3.126 3.126 3.126z"/><circle cx="486.634" cy="283.065" r="3.126"/><path d="m486.634 306.343c1.726 0 3.126-1.399 3.126-3.126s-1.399-3.126-3.126-3.126c-1.726 0-3.126 1.399-3.126 3.126.001 1.727 1.4 3.126 3.126 3.126z"/><circle cx="486.634" cy="323.369" r="3.126"/><path d="m466.482 145.127c1.727 0 3.126-1.399 3.126-3.126s-1.4-3.126-3.126-3.126-3.126 1.4-3.126 3.126c.001 1.727 1.4 3.126 3.126 3.126z"/><path d="m466.482 165.279c1.727 0 3.126-1.399 3.126-3.126s-1.4-3.127-3.126-3.127-3.126 1.4-3.126 3.127c.001 1.727 1.4 3.126 3.126 3.126z"/><path d="m476.938 174.976c1.726 0 3.126-1.399 3.126-3.126 0-1.726-1.4-3.126-3.126-3.126-1.727 0-3.126 1.399-3.126 3.126 0 1.726 1.399 3.126 3.126 3.126z"/><path d="m466.482 185.431c1.727 0 3.126-1.4 3.126-3.126 0-1.727-1.4-3.126-3.126-3.126s-3.126 1.399-3.126 3.126c.001 1.726 1.4 3.126 3.126 3.126z"/><path d="m476.938 195.128c1.726 0 3.126-1.399 3.126-3.126s-1.4-3.127-3.126-3.127c-1.727 0-3.126 1.4-3.126 3.127s1.399 3.126 3.126 3.126z"/><path d="m466.482 205.582c1.727 0 3.126-1.399 3.126-3.125 0-1.727-1.4-3.126-3.126-3.126s-3.126 1.399-3.126 3.126c.001 1.726 1.4 3.125 3.126 3.125z"/><path d="m476.938 215.279c1.726 0 3.126-1.4 3.126-3.126 0-1.727-1.4-3.126-3.126-3.126-1.727 0-3.126 1.399-3.126 3.126 0 1.726 1.399 3.126 3.126 3.126z"/><path d="m466.482 225.735c1.727 0 3.126-1.399 3.126-3.126 0-1.725-1.4-3.125-3.126-3.125s-3.126 1.4-3.126 3.125c.001 1.726 1.4 3.126 3.126 3.126z"/><path d="m456.773 235.354c1.727 0 3.126-1.4 3.126-3.126s-1.399-3.125-3.126-3.125c-1.726 0-3.126 1.399-3.126 3.125s1.4 3.126 3.126 3.126z"/><path d="m476.938 235.431c1.726 0 3.126-1.399 3.126-3.125 0-1.727-1.4-3.126-3.126-3.126-1.727 0-3.126 1.399-3.126 3.126 0 1.725 1.399 3.125 3.126 3.125z"/><path d="m466.482 245.887c1.727 0 3.126-1.399 3.126-3.126 0-1.726-1.4-3.125-3.126-3.125s-3.126 1.399-3.126 3.125c.001 1.727 1.4 3.126 3.126 3.126z"/><path d="m476.938 255.583c1.726 0 3.126-1.399 3.126-3.126 0-1.726-1.4-3.125-3.126-3.125-1.727 0-3.126 1.399-3.126 3.125 0 1.727 1.399 3.126 3.126 3.126z"/><path d="m466.482 266.039c1.727 0 3.126-1.399 3.126-3.126s-1.4-3.127-3.126-3.127-3.126 1.4-3.126 3.127c.001 1.727 1.4 3.126 3.126 3.126z"/><path d="m476.938 275.736c1.726 0 3.126-1.399 3.126-3.126s-1.4-3.125-3.126-3.125c-1.727 0-3.126 1.398-3.126 3.125 0 1.726 1.399 3.126 3.126 3.126z"/><path d="m466.482 286.191c1.727 0 3.126-1.399 3.126-3.126s-1.4-3.126-3.126-3.126-3.126 1.399-3.126 3.126 1.4 3.126 3.126 3.126z"/><path d="m476.938 295.888c1.726 0 3.126-1.399 3.126-3.126s-1.4-3.126-3.126-3.126c-1.727 0-3.126 1.399-3.126 3.126 0 1.726 1.399 3.126 3.126 3.126z"/><path d="m466.482 306.343c1.727 0 3.126-1.399 3.126-3.126s-1.4-3.126-3.126-3.126-3.126 1.399-3.126 3.126c.001 1.727 1.4 3.126 3.126 3.126z"/><path d="m476.938 316.04c1.726 0 3.126-1.399 3.126-3.126s-1.4-3.127-3.126-3.127c-1.727 0-3.126 1.4-3.126 3.127s1.399 3.126 3.126 3.126z"/><path d="m466.482 326.495c1.727 0 3.126-1.4 3.126-3.126 0-1.727-1.4-3.126-3.126-3.126s-3.126 1.399-3.126 3.126c.001 1.727 1.4 3.126 3.126 3.126z"/><path d="m476.938 336.193c1.726 0 3.126-1.4 3.126-3.127s-1.4-3.126-3.126-3.126c-1.727 0-3.126 1.399-3.126 3.126 0 1.726 1.399 3.127 3.126 3.127z"/><path d="m466.482 346.647c1.727 0 3.126-1.399 3.126-3.125 0-1.727-1.4-3.126-3.126-3.126s-3.126 1.4-3.126 3.126c.001 1.725 1.4 3.125 3.126 3.125z"/><path d="m466.482 366.799c1.727 0 3.126-1.399 3.126-3.125 0-1.727-1.4-3.126-3.126-3.126s-3.126 1.399-3.126 3.126c.001 1.726 1.4 3.125 3.126 3.125z"/><path d="m446.33 124.975c1.726 0 3.126-1.399 3.126-3.126s-1.4-3.126-3.126-3.126-3.126 1.399-3.126 3.126c.001 1.726 1.4 3.126 3.126 3.126z"/><path d="m456.786 134.671c1.726 0 3.126-1.399 3.126-3.126s-1.4-3.126-3.126-3.126-3.126 1.399-3.126 3.126 1.4 3.126 3.126 3.126z"/><path d="m456.786 154.824c1.726 0 3.126-1.399 3.126-3.126s-1.4-3.126-3.126-3.126-3.126 1.399-3.126 3.126c0 1.726 1.4 3.126 3.126 3.126z"/><path d="m456.786 174.961c1.726 0 3.126-1.399 3.126-3.126s-1.4-3.126-3.126-3.126-3.126 1.399-3.126 3.126 1.4 3.126 3.126 3.126z"/><path d="m456.786 249.332c-1.726 0-3.126 1.399-3.126 3.125 0 1.727 1.4 3.126 3.126 3.126s3.126-1.399 3.126-3.126c0-1.725-1.4-3.125-3.126-3.125z"/><path d="m456.786 269.485c-1.726 0-3.126 1.398-3.126 3.125s1.4 3.126 3.126 3.126 3.126-1.399 3.126-3.126-1.4-3.125-3.126-3.125z"/><circle cx="446.357" cy="283.038" r="3.126"/><path d="m456.786 289.636c-1.726 0-3.126 1.399-3.126 3.126s1.4 3.126 3.126 3.126 3.126-1.399 3.126-3.126-1.4-3.126-3.126-3.126z"/><path d="m446.33 306.343c1.726 0 3.126-1.399 3.126-3.126s-1.4-3.126-3.126-3.126-3.126 1.399-3.126 3.126c.001 1.727 1.4 3.126 3.126 3.126z"/><path d="m456.786 309.787c-1.726 0-3.126 1.4-3.126 3.127s1.4 3.126 3.126 3.126 3.126-1.399 3.126-3.126-1.4-3.127-3.126-3.127z"/><path d="m446.33 326.495c1.726 0 3.126-1.4 3.126-3.126 0-1.727-1.4-3.126-3.126-3.126s-3.126 1.399-3.126 3.126c.001 1.727 1.4 3.126 3.126 3.126z"/><path d="m456.786 329.94c-1.726 0-3.126 1.399-3.126 3.126s1.4 3.127 3.126 3.127 3.126-1.4 3.126-3.127-1.4-3.126-3.126-3.126z"/><path d="m446.33 346.647c1.726 0 3.126-1.399 3.126-3.125 0-1.727-1.4-3.126-3.126-3.126s-3.126 1.4-3.126 3.126c.001 1.725 1.4 3.125 3.126 3.125z"/><path d="m456.786 350.092c-1.726 0-3.126 1.399-3.126 3.126s1.4 3.125 3.126 3.125 3.126-1.398 3.126-3.125-1.4-3.126-3.126-3.126z"/><path d="m446.33 366.799c1.726 0 3.126-1.399 3.126-3.125 0-1.727-1.4-3.126-3.126-3.126s-3.126 1.399-3.126 3.126c.001 1.726 1.4 3.125 3.126 3.125z"/><path d="m456.786 370.244c-1.726 0-3.126 1.399-3.126 3.126 0 1.725 1.4 3.125 3.126 3.125s3.126-1.4 3.126-3.125c0-1.726-1.4-3.126-3.126-3.126z"/><path d="m446.33 386.951c1.726 0 3.126-1.399 3.126-3.126s-1.4-3.126-3.126-3.126-3.126 1.399-3.126 3.126c.001 1.727 1.4 3.126 3.126 3.126z"/><path d="m436.634 309.787c-1.726 0-3.126 1.4-3.126 3.127s1.4 3.126 3.126 3.126 3.126-1.399 3.126-3.126-1.4-3.127-3.126-3.127z"/><path d="m436.634 329.94c-1.726 0-3.126 1.399-3.126 3.126s1.4 3.127 3.126 3.127 3.126-1.4 3.126-3.127-1.4-3.126-3.126-3.126z"/><path d="m426.178 340.396c-1.727 0-3.126 1.4-3.126 3.126s1.399 3.125 3.126 3.125c1.726 0 3.125-1.399 3.125-3.125.001-1.727-1.398-3.126-3.125-3.126z"/><path d="m436.634 350.092c-1.726 0-3.126 1.399-3.126 3.126s1.4 3.125 3.126 3.125 3.126-1.398 3.126-3.125-1.4-3.126-3.126-3.126z"/><path d="m426.178 360.548c-1.727 0-3.126 1.399-3.126 3.126 0 1.726 1.399 3.125 3.126 3.125 1.726 0 3.125-1.399 3.125-3.125.001-1.726-1.398-3.126-3.125-3.126z"/><path d="m436.634 370.244c-1.726 0-3.126 1.399-3.126 3.126 0 1.725 1.4 3.125 3.126 3.125s3.126-1.4 3.126-3.125c0-1.726-1.4-3.126-3.126-3.126z"/><path d="m426.178 380.699c-1.727 0-3.126 1.399-3.126 3.126s1.399 3.126 3.126 3.126c1.726 0 3.125-1.399 3.125-3.126.001-1.726-1.398-3.126-3.125-3.126z"/><path d="m436.634 390.397c-1.726 0-3.126 1.399-3.126 3.125 0 1.727 1.4 3.126 3.126 3.126s3.126-1.399 3.126-3.126c0-1.726-1.4-3.125-3.126-3.125z"/><path d="m426.178 400.852c-1.727 0-3.126 1.399-3.126 3.125 0 1.727 1.399 3.126 3.126 3.126 1.726 0 3.125-1.399 3.125-3.126.001-1.726-1.398-3.125-3.125-3.125z"/><path d="m436.634 410.549c-1.726 0-3.126 1.399-3.126 3.125 0 1.727 1.4 3.126 3.126 3.126s3.126-1.399 3.126-3.126c0-1.726-1.4-3.125-3.126-3.125z"/><path d="m426.178 421.003c-1.727 0-3.126 1.399-3.126 3.126s1.399 3.126 3.126 3.126c1.726 0 3.125-1.399 3.125-3.126.001-1.726-1.398-3.126-3.125-3.126z"/><path d="m416.482 350.092c-1.726 0-3.126 1.399-3.126 3.126s1.4 3.125 3.126 3.125 3.126-1.398 3.126-3.125c-.001-1.727-1.4-3.126-3.126-3.126z"/><path d="m406.026 360.548c-1.727 0-3.126 1.399-3.126 3.126 0 1.726 1.399 3.125 3.126 3.125 1.726 0 3.126-1.399 3.126-3.125s-1.399-3.126-3.126-3.126z"/><path d="m396.317 376.508c1.726 0 3.126-1.399 3.126-3.125 0-1.727-1.4-3.126-3.126-3.126s-3.126 1.399-3.126 3.126c0 1.726 1.4 3.125 3.126 3.125z"/><path d="m416.482 370.244c-1.726 0-3.126 1.399-3.126 3.126 0 1.725 1.4 3.125 3.126 3.125s3.126-1.4 3.126-3.125c-.001-1.726-1.4-3.126-3.126-3.126z"/><path d="m406.026 380.699c-1.727 0-3.126 1.399-3.126 3.126s1.399 3.126 3.126 3.126c1.726 0 3.126-1.399 3.126-3.126 0-1.726-1.399-3.126-3.126-3.126z"/><path d="m416.482 390.397c-1.726 0-3.126 1.399-3.126 3.125 0 1.727 1.4 3.126 3.126 3.126s3.126-1.399 3.126-3.126c-.001-1.726-1.4-3.125-3.126-3.125z"/><path d="m406.026 400.852c-1.727 0-3.126 1.399-3.126 3.125 0 1.727 1.399 3.126 3.126 3.126 1.726 0 3.126-1.399 3.126-3.126 0-1.726-1.399-3.125-3.126-3.125z"/><path d="m416.482 410.549c-1.726 0-3.126 1.399-3.126 3.125 0 1.727 1.4 3.126 3.126 3.126s3.126-1.399 3.126-3.126c-.001-1.726-1.4-3.125-3.126-3.125z"/><path d="m406.026 421.003c-1.727 0-3.126 1.399-3.126 3.126s1.399 3.126 3.126 3.126c1.726 0 3.126-1.399 3.126-3.126 0-1.726-1.399-3.126-3.126-3.126z"/><path d="m416.482 430.699c-1.726 0-3.126 1.401-3.126 3.127 0 1.727 1.4 3.126 3.126 3.126s3.126-1.399 3.126-3.126c-.001-1.725-1.4-3.127-3.126-3.127z"/><path d="m396.33 390.397c-1.726 0-3.126 1.399-3.126 3.125 0 1.727 1.399 3.126 3.126 3.126s3.126-1.399 3.126-3.126c0-1.726-1.4-3.125-3.126-3.125z"/><path d="m385.901 380.688c-1.726 0-3.126 1.399-3.126 3.125 0 1.727 1.4 3.126 3.126 3.126s3.126-1.399 3.126-3.126c0-1.726-1.399-3.125-3.126-3.125z"/><path d="m385.874 400.852c-1.726 0-3.125 1.399-3.125 3.125 0 1.727 1.399 3.126 3.125 3.126 1.727 0 3.126-1.399 3.126-3.126 0-1.726-1.4-3.125-3.126-3.125z"/><path d="m376.165 396.675c1.727 0 3.126-1.399 3.126-3.126 0-1.726-1.399-3.125-3.126-3.125-1.726 0-3.126 1.399-3.126 3.125 0 1.727 1.4 3.126 3.126 3.126z"/><path d="m396.33 410.549c-1.726 0-3.126 1.399-3.126 3.125 0 1.727 1.399 3.126 3.126 3.126s3.126-1.399 3.126-3.126c0-1.726-1.4-3.125-3.126-3.125z"/><path d="m385.874 421.003c-1.726 0-3.125 1.399-3.125 3.126s1.399 3.126 3.125 3.126c1.727 0 3.126-1.399 3.126-3.126 0-1.726-1.4-3.126-3.126-3.126z"/><path d="m396.33 430.699c-1.726 0-3.126 1.401-3.126 3.127 0 1.727 1.399 3.126 3.126 3.126s3.126-1.399 3.126-3.126c0-1.725-1.4-3.127-3.126-3.127z"/><path d="m385.874 441.155c-1.726 0-3.125 1.399-3.125 3.126s1.399 3.126 3.125 3.126c1.727 0 3.126-1.399 3.126-3.126s-1.4-3.126-3.126-3.126z"/><path d="m365.722 400.852c-1.726 0-3.126 1.399-3.126 3.125 0 1.727 1.4 3.126 3.126 3.126s3.126-1.399 3.126-3.126c0-1.726-1.4-3.125-3.126-3.125z"/><path d="m376.177 410.549c-1.726 0-3.126 1.399-3.126 3.125 0 1.727 1.4 3.126 3.126 3.126s3.126-1.399 3.126-3.126c.001-1.726-1.399-3.125-3.126-3.125z"/><path d="m365.722 421.003c-1.726 0-3.126 1.399-3.126 3.126s1.4 3.126 3.126 3.126 3.126-1.399 3.126-3.126c0-1.726-1.4-3.126-3.126-3.126z"/><path d="m376.177 430.699c-1.726 0-3.126 1.401-3.126 3.127 0 1.727 1.4 3.126 3.126 3.126s3.126-1.399 3.126-3.126c.001-1.725-1.399-3.127-3.126-3.127z"/><path d="m365.722 441.155c-1.726 0-3.126 1.399-3.126 3.126s1.4 3.126 3.126 3.126 3.126-1.399 3.126-3.126-1.4-3.126-3.126-3.126z"/><path d="m376.177 450.852c-1.726 0-3.126 1.399-3.126 3.126s1.4 3.127 3.126 3.127 3.126-1.4 3.126-3.127c.001-1.727-1.399-3.126-3.126-3.126z"/><path d="m365.722 461.308c-1.726 0-3.126 1.399-3.126 3.126s1.4 3.126 3.126 3.126 3.126-1.399 3.126-3.126-1.4-3.126-3.126-3.126z"/><path d="m356.025 410.549c-1.726 0-3.126 1.399-3.126 3.125 0 1.727 1.4 3.126 3.126 3.126 1.727 0 3.126-1.399 3.126-3.126 0-1.726-1.399-3.125-3.126-3.125z"/><path d="m345.57 421.003c-1.727 0-3.126 1.399-3.126 3.126s1.399 3.126 3.126 3.126c1.726 0 3.125-1.399 3.125-3.126.001-1.726-1.399-3.126-3.125-3.126z"/><path d="m356.025 430.699c-1.726 0-3.126 1.401-3.126 3.127 0 1.727 1.4 3.126 3.126 3.126 1.727 0 3.126-1.399 3.126-3.126 0-1.725-1.399-3.127-3.126-3.127z"/><path d="m345.57 441.155c-1.727 0-3.126 1.399-3.126 3.126s1.399 3.126 3.126 3.126c1.726 0 3.125-1.399 3.125-3.126s-1.399-3.126-3.125-3.126z"/><path d="m356.025 450.852c-1.726 0-3.126 1.399-3.126 3.126s1.4 3.127 3.126 3.127c1.727 0 3.126-1.4 3.126-3.127s-1.399-3.126-3.126-3.126z"/><path d="m345.57 461.308c-1.727 0-3.126 1.399-3.126 3.126s1.399 3.126 3.126 3.126c1.726 0 3.125-1.399 3.125-3.126.001-1.727-1.399-3.126-3.125-3.126z"/><path d="m356.025 471.004c-1.726 0-3.126 1.4-3.126 3.126 0 1.727 1.4 3.126 3.126 3.126 1.727 0 3.126-1.399 3.126-3.126 0-1.726-1.399-3.126-3.126-3.126z"/><path d="m335.874 430.699c-1.727 0-3.126 1.401-3.126 3.127 0 1.727 1.399 3.126 3.126 3.126 1.726 0 3.126-1.399 3.126-3.126-.001-1.725-1.4-3.127-3.126-3.127z"/><path d="m325.418 441.155c-1.726 0-3.126 1.399-3.126 3.126s1.399 3.126 3.126 3.126 3.126-1.399 3.126-3.126-1.399-3.126-3.126-3.126z"/><path d="m315.709 437.07c1.726 0 3.126-1.399 3.126-3.126s-1.399-3.127-3.126-3.127-3.126 1.4-3.126 3.127 1.399 3.126 3.126 3.126z"/><path d="m335.874 450.852c-1.727 0-3.126 1.399-3.126 3.126s1.399 3.127 3.126 3.127c1.726 0 3.126-1.4 3.126-3.127-.001-1.727-1.4-3.126-3.126-3.126z"/><path d="m325.418 461.308c-1.726 0-3.126 1.399-3.126 3.126s1.399 3.126 3.126 3.126 3.126-1.399 3.126-3.126-1.399-3.126-3.126-3.126z"/><path d="m335.874 471.004c-1.727 0-3.126 1.4-3.126 3.126 0 1.727 1.399 3.126 3.126 3.126 1.726 0 3.126-1.399 3.126-3.126-.001-1.726-1.4-3.126-3.126-3.126z"/><path d="m325.418 481.46c-1.726 0-3.126 1.399-3.126 3.126 0 1.726 1.399 3.126 3.126 3.126s3.126-1.4 3.126-3.126-1.399-3.126-3.126-3.126z"/><circle cx="305.266" cy="444.281" r="3.126"/><path d="m315.721 450.852c-1.726 0-3.126 1.399-3.126 3.126s1.399 3.127 3.126 3.127c1.726 0 3.126-1.4 3.126-3.127s-1.399-3.126-3.126-3.126z"/><path d="m305.266 461.308c-1.726 0-3.126 1.399-3.126 3.126s1.4 3.126 3.126 3.126 3.126-1.399 3.126-3.126-1.4-3.126-3.126-3.126z"/><path d="m315.721 471.004c-1.726 0-3.126 1.4-3.126 3.126 0 1.727 1.399 3.126 3.126 3.126 1.726 0 3.126-1.399 3.126-3.126 0-1.726-1.399-3.126-3.126-3.126z"/><circle cx="305.266" cy="484.586" r="3.126"/><path d="m295.569 450.852c-1.726 0-3.126 1.399-3.126 3.126s1.4 3.127 3.126 3.127 3.126-1.4 3.126-3.127-1.399-3.126-3.126-3.126z"/><path d="m285.114 461.308c-1.727 0-3.126 1.399-3.126 3.126s1.399 3.126 3.126 3.126c1.726 0 3.126-1.399 3.126-3.126s-1.4-3.126-3.126-3.126z"/><circle cx="295.569" cy="474.13" r="3.126"/><path d="m285.114 481.46c-1.727 0-3.126 1.399-3.126 3.126 0 1.726 1.399 3.126 3.126 3.126 1.726 0 3.126-1.4 3.126-3.126s-1.4-3.126-3.126-3.126z"/><path d="m275.417 450.852c-1.727 0-3.126 1.399-3.126 3.126s1.399 3.127 3.126 3.127c1.726 0 3.126-1.4 3.126-3.127s-1.399-3.126-3.126-3.126z"/><path d="m264.962 461.308c-1.726 0-3.126 1.399-3.126 3.126s1.4 3.126 3.126 3.126 3.126-1.399 3.126-3.126-1.4-3.126-3.126-3.126z"/><path d="m255.343 450.879c-1.726 0-3.126 1.4-3.126 3.126 0 1.727 1.4 3.126 3.126 3.126s3.126-1.399 3.126-3.126c0-1.726-1.4-3.126-3.126-3.126z"/><path d="m275.417 471.004c-1.727 0-3.126 1.4-3.126 3.126 0 1.727 1.399 3.126 3.126 3.126 1.726 0 3.126-1.399 3.126-3.126 0-1.726-1.399-3.126-3.126-3.126z"/><path d="m264.962 481.46c-1.726 0-3.126 1.399-3.126 3.126 0 1.726 1.4 3.126 3.126 3.126s3.126-1.4 3.126-3.126-1.4-3.126-3.126-3.126z"/><path d="m275.417 491.156c-1.727 0-3.126 1.399-3.126 3.126s1.399 3.126 3.126 3.126c1.726 0 3.126-1.399 3.126-3.126 0-1.726-1.399-3.126-3.126-3.126z"/><path d="m244.81 461.308c-1.726 0-3.126 1.399-3.126 3.126s1.399 3.126 3.126 3.126 3.126-1.399 3.126-3.126-1.4-3.126-3.126-3.126z"/><path d="m255.265 471.004c-1.727 0-3.126 1.4-3.126 3.126 0 1.727 1.399 3.126 3.126 3.126 1.726 0 3.126-1.399 3.126-3.126 0-1.726-1.4-3.126-3.126-3.126z"/><path d="m244.81 481.46c-1.726 0-3.126 1.399-3.126 3.126 0 1.726 1.399 3.126 3.126 3.126s3.126-1.4 3.126-3.126-1.4-3.126-3.126-3.126z"/><path d="m255.265 491.156c-1.727 0-3.126 1.399-3.126 3.126s1.399 3.126 3.126 3.126c1.726 0 3.126-1.399 3.126-3.126 0-1.726-1.4-3.126-3.126-3.126z"/><path d="m224.658 461.308c-1.726 0-3.126 1.399-3.126 3.126s1.4 3.126 3.126 3.126 3.126-1.399 3.126-3.126-1.4-3.126-3.126-3.126z"/><path d="m235.113 471.004c-1.727 0-3.126 1.4-3.126 3.126 0 1.727 1.399 3.126 3.126 3.126 1.726 0 3.126-1.399 3.126-3.126 0-1.726-1.399-3.126-3.126-3.126z"/><path d="m224.658 481.46c-1.726 0-3.126 1.399-3.126 3.126 0 1.726 1.4 3.126 3.126 3.126s3.126-1.4 3.126-3.126-1.4-3.126-3.126-3.126z"/><path d="m235.113 491.156c-1.727 0-3.126 1.399-3.126 3.126s1.399 3.126 3.126 3.126c1.726 0 3.126-1.399 3.126-3.126 0-1.726-1.399-3.126-3.126-3.126z"/><path d="m204.506 461.308c-1.727 0-3.126 1.399-3.126 3.126s1.399 3.126 3.126 3.126c1.726 0 3.126-1.399 3.126-3.126s-1.4-3.126-3.126-3.126z"/><path d="m214.961 471.004c-1.726 0-3.126 1.4-3.126 3.126 0 1.727 1.4 3.126 3.126 3.126 1.727 0 3.126-1.399 3.126-3.126 0-1.726-1.399-3.126-3.126-3.126z"/><path d="m204.506 481.46c-1.727 0-3.126 1.399-3.126 3.126 0 1.726 1.399 3.126 3.126 3.126 1.726 0 3.126-1.4 3.126-3.126s-1.4-3.126-3.126-3.126z"/><path d="m184.354 461.308c-1.726 0-3.126 1.399-3.126 3.126s1.399 3.126 3.126 3.126 3.126-1.399 3.126-3.126-1.4-3.126-3.126-3.126z"/><path d="m194.809 471.004c-1.726 0-3.126 1.4-3.126 3.126 0 1.727 1.4 3.126 3.126 3.126s3.126-1.399 3.126-3.126c0-1.726-1.4-3.126-3.126-3.126z"/><path d="m184.354 481.46c-1.726 0-3.126 1.399-3.126 3.126 0 1.726 1.399 3.126 3.126 3.126s3.126-1.4 3.126-3.126-1.4-3.126-3.126-3.126z"/><path d="m164.202 461.308c-1.727 0-3.126 1.399-3.126 3.126s1.399 3.126 3.126 3.126c1.726 0 3.126-1.399 3.126-3.126-.001-1.727-1.4-3.126-3.126-3.126z"/><path d="m154.492 457.131c1.726 0 3.126-1.399 3.126-3.126s-1.4-3.126-3.126-3.126-3.126 1.4-3.126 3.126c.001 1.727 1.4 3.126 3.126 3.126z"/><path d="m174.657 471.004c-1.726 0-3.126 1.4-3.126 3.126 0 1.727 1.4 3.126 3.126 3.126s3.126-1.399 3.126-3.126c0-1.726-1.4-3.126-3.126-3.126z"/><path d="m144.049 461.308c-1.726 0-3.126 1.399-3.126 3.126s1.399 3.126 3.126 3.126 3.126-1.399 3.126-3.126c.001-1.727-1.399-3.126-3.126-3.126z"/><path d="m154.505 471.004c-1.727 0-3.126 1.4-3.126 3.126 0 1.727 1.399 3.126 3.126 3.126 1.726 0 3.126-1.399 3.126-3.126 0-1.726-1.4-3.126-3.126-3.126z"/><path d="m134.353 450.852c-1.726 0-3.125 1.399-3.125 3.126s1.399 3.127 3.125 3.127c1.727 0 3.126-1.4 3.126-3.127s-1.399-3.126-3.126-3.126z"/><path d="m123.924 441.143c-1.726 0-3.126 1.399-3.126 3.126s1.4 3.126 3.126 3.126c1.727 0 3.126-1.399 3.126-3.126s-1.399-3.126-3.126-3.126z"/><path d="m103.746 441.155c-1.726 0-3.126 1.399-3.126 3.126s1.4 3.126 3.126 3.126 3.126-1.399 3.126-3.126-1.4-3.126-3.126-3.126z"/><path d="m94.049 430.699c-1.726 0-3.126 1.401-3.126 3.127 0 1.727 1.4 3.126 3.126 3.126s3.126-1.399 3.126-3.126c0-1.725-1.4-3.127-3.126-3.127z"/><path d="m433.715 74.413c-47.987-47.986-111.787-74.413-179.651-74.413-67.862 0-131.663 26.427-179.65 74.413-47.987 47.987-74.414 111.788-74.414 179.652 0 67.862 26.427 131.663 74.414 179.649 47.987 47.987 111.788 74.414 179.65 74.414 67.864 0 131.664-26.427 179.651-74.414 47.986-47.986 74.413-111.787 74.413-179.649 0-67.864-26.427-131.665-74.413-179.652zm-24.652 370.579c.054-.229.089-.465.089-.711 0-1.727-1.4-3.126-3.126-3.126-1.727 0-3.126 1.399-3.126 3.126s1.399 3.126 3.126 3.126c.016 0 .03-.004.046-.004-2.273 1.791-4.588 3.531-6.924 5.243-.501-1.058-1.57-1.795-2.818-1.795-1.726 0-3.126 1.399-3.126 3.126 0 .878.363 1.668.946 2.235-28.302 19.673-60.904 33.57-96.096 39.948.397-.524.642-1.17.642-1.879 0-1.727-1.4-3.126-3.126-3.126s-3.126 1.399-3.126 3.126c0 1.08.548 2.032 1.382 2.594-12.948 2.113-26.225 3.23-39.761 3.23-12.9 0-25.57-1.004-37.939-2.927 1.149-.462 1.962-1.582 1.962-2.896 0-1.727-1.4-3.126-3.126-3.126s-3.126 1.399-3.126 3.126c0 .952.435 1.795 1.106 2.368-5.08-.858-10.11-1.863-15.08-3.028-.303-1.409-1.553-2.466-3.053-2.466-.963 0-1.813.444-2.386 1.129-8.566-2.218-16.945-4.9-25.125-7.993-.15-1.587-1.47-2.832-3.096-2.832-.803 0-1.528.31-2.081.809-12.221-4.941-23.963-10.828-35.122-17.586.007-.083.025-.164.025-.249 0-1.727-1.4-3.126-3.126-3.126-.587 0-1.129.172-1.598.453-2.442-1.555-4.85-3.156-7.233-4.793 1.302-.378 2.26-1.565 2.26-2.99 0-1.727-1.399-3.126-3.126-3.126-1.726 0-3.126 1.399-3.126 3.126 0 .073.017.142.021.213-62.36-44.677-103.073-117.734-103.073-200.126 0-135.668 110.373-246.042 246.041-246.042 66.983 0 127.788 26.918 172.199 70.489-.05-.003-.097-.016-.148-.016-1.726 0-3.126 1.399-3.126 3.125 0 1.727 1.399 3.126 3.126 3.126 1.726 0 3.126-1.399 3.126-3.126 0-.054-.013-.104-.016-.157 2.198 2.23 4.361 4.497 6.474 6.81-1.267.399-2.191 1.569-2.191 2.967 0 1.727 1.4 3.127 3.126 3.127 1.271 0 2.361-.763 2.849-1.853 1.839 2.108 3.639 4.253 5.407 6.424-.998.521-1.686 1.554-1.686 2.758 0 1.727 1.399 3.126 3.126 3.126.948 0 1.787-.431 2.36-1.097 1.738 2.244 3.439 4.518 5.1 6.822-.076.271-.13.55-.13.845 0 1.654 1.288 2.993 2.913 3.104 7.459 10.789 14.082 22.196 19.767 34.135-1.44.279-2.528 1.544-2.528 3.065 0 1.727 1.4 3.126 3.126 3.126.736 0 1.404-.265 1.938-.691 3.739 8.379 7.024 17.002 9.822 25.842-.552-.489-1.269-.795-2.064-.795-1.726 0-3.126 1.399-3.126 3.126 0 1.726 1.399 3.126 3.126 3.126 1.457 0 2.671-1.002 3.017-2.351 2.576 8.534 4.704 17.26 6.348 26.154-1.187.443-2.036 1.578-2.036 2.919 0 1.708 1.372 3.092 3.074 3.12.762 4.789 1.389 9.621 1.869 14.497-.513-.368-1.137-.591-1.817-.591-1.726 0-3.126 1.399-3.126 3.126 0 1.726 1.4 3.125 3.126 3.125.878 0 1.669-.364 2.237-.947.447 5.646.69 11.347.748 17.092-.383-1.293-1.566-2.243-2.984-2.243-1.726 0-3.126 1.399-3.126 3.125 0 1.727 1.4 3.126 3.126 3.126 1.443 0 2.646-.983 3.006-2.312.001.265.01.528.01.794 0 5.585-.205 11.122-.573 16.616-.573-.724-1.448-1.196-2.442-1.196-1.726 0-3.126 1.398-3.126 3.125s1.4 3.126 3.126 3.126c.824 0 1.567-.325 2.125-.846-.419 4.973-.985 9.904-1.697 14.789-.142-.02-.282-.043-.429-.043-1.726 0-3.126 1.399-3.126 3.126 0 1.539 1.115 2.811 2.579 3.07-3.363 19.583-9.049 38.379-16.762 56.101-.491-1.084-1.576-1.841-2.843-1.841-1.727 0-3.126 1.399-3.126 3.126s1.4 3.125 3.126 3.125c.335 0 .651-.066.954-.164-5.555 12.129-12.065 23.73-19.438 34.708-.484-.307-1.053-.49-1.668-.49-1.726 0-3.126 1.399-3.126 3.125 0 1.023.499 1.924 1.259 2.493-1.789 2.524-3.634 5.005-5.514 7.457-.243-1.484-1.522-2.62-3.075-2.62-1.726 0-3.126 1.399-3.126 3.125 0 1.727 1.399 3.126 3.126 3.126.09 0 .175-.019.263-.026-11.109 13.949-23.698 26.665-37.53 37.915z"/><path d="m284.379 257.018c23.337-11.28 39.436-35.176 39.436-62.834 0-38.522-31.228-69.75-69.751-69.75-38.522 0-69.751 31.228-69.751 69.75 0 27.658 16.099 51.554 39.436 62.834-56.234 13.623-98 64.282-98 124.703 0 .66.015 1.316.025 1.974h256.581c.01-.657.025-1.314.025-1.974 0-60.421-41.767-111.08-98.001-124.703z"/></g></g></svg>