<svg id="Layer_1" enable-background="new 0 0 512 512" height="512" viewBox="0 0 512 512" width="512" xmlns="http://www.w3.org/2000/svg"><g><path d="m432.733 512h-353.466c-8.284 0-15-6.716-15-15v-64.267c0-8.284 6.716-15 15-15h353.467c8.284 0 15 6.716 15 15v64.267c-.001 8.284-6.716 15-15.001 15z" fill="#ff3c5a"/><path d="m447.733 497v-64.267c0-8.284-6.716-15-15-15h-176.733v94.267h176.733c8.285 0 15-6.716 15-15z" fill="#c80050"/><path d="m79.267 367.4h-32.133c-25.989 0-47.134-21.144-47.134-47.133s21.145-47.133 47.134-47.133h32.133c8.284 0 15 6.716 15 15v64.266c0 8.284-6.716 15-15 15z" fill="#ffbeb8"/><path d="m464.866 367.4h-32.133c-8.284 0-15-6.716-15-15v-64.267c0-8.284 6.716-15 15-15h32.133c25.989 0 47.134 21.144 47.134 47.133s-21.145 47.134-47.134 47.134z" fill="#ff999c"/><path d="m368.467 190.667h-224.934c-5.593 0-10.722-3.112-13.305-8.073s-2.191-10.947 1.017-15.529l112.467-160.667c2.807-4.01 7.393-6.398 12.288-6.398s9.481 2.388 12.288 6.398l112.467 160.667c3.208 4.582 3.6 10.568 1.017 15.529s-7.712 8.073-13.305 8.073z" fill="#7af7c2"/><path d="m381.771 182.594c2.583-4.961 2.191-10.947-1.017-15.529l-112.466-160.667c-2.807-4.01-7.393-6.398-12.288-6.398v190.667h112.467c5.593 0 10.721-3.112 13.304-8.073z" fill="#00c596"/><path d="m432.733 447.733h-353.466c-8.284 0-15-6.716-15-15v-192.8c0-8.284 6.716-15 15-15h32.133c27.166 0 49.267-22.101 49.267-49.267 0-8.284 6.716-15 15-15 8.252 0 14.947 6.663 15 14.903v.097c0 27.912 22.715 49.267 49.267 49.267h192.8c8.284 0 15 6.716 15 15v192.8c-.001 8.285-6.716 15-15.001 15z" fill="#ffe1d9"/><path d="m447.733 432.733v-192.8c0-8.284-6.716-15-15-15h-176.733v222.8h176.733c8.285 0 15-6.715 15-15z" fill="#ffbeb8"/><path d="m256 383.467c-18.696 0-36.247-7.271-49.419-20.472-5.852-5.864-5.841-15.362.023-21.213s15.362-5.841 21.213.024c7.504 7.52 17.513 11.662 28.183 11.662s20.679-4.142 28.183-11.662c5.85-5.864 15.348-5.876 21.213-.024 5.864 5.852 5.875 15.349.023 21.213-13.172 13.201-30.723 20.472-49.419 20.472z" fill="#ffbeb8"/><circle clip-rule="evenodd" cx="175.667" cy="304.2" fill="#572f2f" fill-rule="evenodd" r="15"/><circle clip-rule="evenodd" cx="336.333" cy="304.2" fill="#140a1e" fill-rule="evenodd" r="15"/><path d="m170.21 111.4h171.58l-21-30h-129.58z" fill="#ff3c5a"/><path d="m305.396 341.781c-5.865-5.852-15.363-5.84-21.213.024-7.504 7.52-17.513 11.662-28.183 11.662v30c18.696 0 36.247-7.271 49.419-20.472 5.852-5.865 5.841-15.362-.023-21.214z" fill="#ff999c"/><path d="m320.79 81.4h-64.79v30h85.79z" fill="#c80050"/><path d="m111.4 254.933h-32.133c-8.284 0-15-6.716-15-15 0-43.708 35.559-79.267 79.267-79.267h32.134c8.284 0 15 6.716 15 15-.001 43.708-35.56 79.267-79.268 79.267z" fill="#99533f"/><path d="m432.733 254.933h-192.8c-42.773 0-79.267-34.463-79.267-79.25 0-8.284 6.716-15.016 15-15.016h192.8c43.708 0 79.267 35.559 79.267 79.267 0 8.283-6.715 14.999-15 14.999z" fill="#572f2f"/><path d="m447.733 239.933c0-43.708-35.559-79.267-79.267-79.267h-112.466v94.267h176.733c8.285 0 15-6.716 15-15z" fill="#140a1e"/></g></svg>