<svg id="Capa_1" enable-background="new 0 0 511.63 511.63" height="512" viewBox="0 0 511.63 511.63" width="512" xmlns="http://www.w3.org/2000/svg"><g fill="#f4f4f4"><g><path d="m255.513 98.488c1.715 0 3.106-1.391 3.106-3.106s-1.391-3.106-3.106-3.106-3.106 1.391-3.106 3.106 1.39 3.106 3.106 3.106z"/><path d="m245.123 108.877c1.715 0 3.106-1.391 3.106-3.106 0-1.716-1.391-3.106-3.106-3.106s-3.106 1.391-3.106 3.106c.001 1.715 1.391 3.106 3.106 3.106z"/><path d="m255.513 118.512c1.715 0 3.106-1.391 3.106-3.106s-1.391-3.106-3.106-3.106-3.106 1.391-3.106 3.106 1.39 3.106 3.106 3.106z"/><path d="m245.123 128.901c1.715 0 3.106-1.391 3.106-3.106s-1.391-3.106-3.106-3.106-3.106 1.391-3.106 3.106c.001 1.716 1.391 3.106 3.106 3.106z"/><path d="m255.513 138.537c1.715 0 3.106-1.391 3.106-3.106s-1.391-3.106-3.106-3.106-3.106 1.391-3.106 3.106 1.39 3.106 3.106 3.106z"/><path d="m245.123 148.926c1.715 0 3.106-1.391 3.106-3.106s-1.391-3.106-3.106-3.106-3.106 1.391-3.106 3.106 1.391 3.106 3.106 3.106z"/><path d="m255.513 158.561c1.715 0 3.106-1.391 3.106-3.106s-1.391-3.106-3.106-3.106-3.106 1.391-3.106 3.106 1.39 3.106 3.106 3.106z"/><path d="m245.123 168.95c1.715 0 3.106-1.391 3.106-3.106s-1.391-3.106-3.106-3.106-3.106 1.391-3.106 3.106c.001 1.715 1.391 3.106 3.106 3.106z"/><path d="m255.513 178.586c1.715 0 3.106-1.391 3.106-3.106s-1.391-3.106-3.106-3.106-3.106 1.391-3.106 3.106 1.39 3.106 3.106 3.106z"/><path d="m245.123 188.975c1.715 0 3.106-1.391 3.106-3.106 0-1.716-1.391-3.106-3.106-3.106s-3.106 1.391-3.106 3.106c.001 1.715 1.391 3.106 3.106 3.106z"/><path d="m255.513 198.61c1.715 0 3.106-1.391 3.106-3.106s-1.391-3.106-3.106-3.106-3.106 1.391-3.106 3.106 1.39 3.106 3.106 3.106z"/><path d="m245.123 208.999c1.715 0 3.106-1.391 3.106-3.106 0-1.716-1.391-3.106-3.106-3.106s-3.106 1.391-3.106 3.106c.001 1.715 1.391 3.106 3.106 3.106z"/><path d="m255.513 218.635c1.715 0 3.106-1.391 3.106-3.106s-1.391-3.106-3.106-3.106-3.106 1.391-3.106 3.106 1.39 3.106 3.106 3.106z"/><path d="m245.123 229.024c1.715 0 3.106-1.391 3.106-3.106s-1.391-3.106-3.106-3.106-3.106 1.391-3.106 3.106c.001 1.715 1.391 3.106 3.106 3.106z"/><path d="m255.513 238.659c1.715 0 3.106-1.391 3.106-3.106s-1.391-3.106-3.106-3.106-3.106 1.391-3.106 3.106 1.39 3.106 3.106 3.106z"/><path d="m245.123 249.048c1.715 0 3.106-1.391 3.106-3.106s-1.391-3.106-3.106-3.106-3.106 1.391-3.106 3.106c.001 1.715 1.391 3.106 3.106 3.106z"/><path d="m225.099 68.828c1.716 0 3.106-1.391 3.106-3.106s-1.391-3.106-3.106-3.106c-1.716 0-3.106 1.391-3.106 3.106s1.39 3.106 3.106 3.106z"/><path d="m235.488 78.463c1.716 0 3.106-1.391 3.106-3.106s-1.391-3.106-3.106-3.106-3.106 1.391-3.106 3.106c0 1.716 1.391 3.106 3.106 3.106z"/><path d="m225.099 88.852c1.716 0 3.106-1.391 3.106-3.106s-1.391-3.106-3.106-3.106c-1.716 0-3.106 1.391-3.106 3.106s1.39 3.106 3.106 3.106z"/><path d="m235.488 118.512c1.716 0 3.106-1.391 3.106-3.106s-1.391-3.106-3.106-3.106-3.106 1.391-3.106 3.106 1.391 3.106 3.106 3.106z"/><path d="m225.099 128.901c1.716 0 3.106-1.391 3.106-3.106s-1.391-3.106-3.106-3.106c-1.716 0-3.106 1.391-3.106 3.106 0 1.716 1.39 3.106 3.106 3.106z"/><path d="m235.488 138.537c1.716 0 3.106-1.391 3.106-3.106s-1.391-3.106-3.106-3.106-3.106 1.391-3.106 3.106 1.391 3.106 3.106 3.106z"/><path d="m225.099 148.926c1.716 0 3.106-1.391 3.106-3.106s-1.391-3.106-3.106-3.106c-1.716 0-3.106 1.391-3.106 3.106s1.39 3.106 3.106 3.106z"/><path d="m235.488 158.561c1.716 0 3.106-1.391 3.106-3.106s-1.391-3.106-3.106-3.106-3.106 1.391-3.106 3.106 1.391 3.106 3.106 3.106z"/><path d="m225.099 168.95c1.716 0 3.106-1.391 3.106-3.106s-1.391-3.106-3.106-3.106c-1.716 0-3.106 1.391-3.106 3.106s1.39 3.106 3.106 3.106z"/><path d="m235.488 178.586c1.716 0 3.106-1.391 3.106-3.106s-1.391-3.106-3.106-3.106-3.106 1.391-3.106 3.106 1.391 3.106 3.106 3.106z"/><path d="m225.099 188.975c1.716 0 3.106-1.391 3.106-3.106 0-1.716-1.391-3.106-3.106-3.106-1.716 0-3.106 1.391-3.106 3.106s1.39 3.106 3.106 3.106z"/><path d="m235.488 198.61c1.716 0 3.106-1.391 3.106-3.106s-1.391-3.106-3.106-3.106-3.106 1.391-3.106 3.106 1.391 3.106 3.106 3.106z"/><path d="m225.099 208.999c1.716 0 3.106-1.391 3.106-3.106 0-1.716-1.391-3.106-3.106-3.106-1.716 0-3.106 1.391-3.106 3.106s1.39 3.106 3.106 3.106z"/><path d="m235.488 218.635c1.716 0 3.106-1.391 3.106-3.106s-1.391-3.106-3.106-3.106-3.106 1.391-3.106 3.106 1.391 3.106 3.106 3.106z"/><path d="m225.099 229.024c1.716 0 3.106-1.391 3.106-3.106s-1.391-3.106-3.106-3.106c-1.716 0-3.106 1.391-3.106 3.106s1.39 3.106 3.106 3.106z"/><path d="m235.488 238.659c1.716 0 3.106-1.391 3.106-3.106s-1.391-3.106-3.106-3.106-3.106 1.391-3.106 3.106 1.391 3.106 3.106 3.106z"/><path d="m225.099 249.048c1.716 0 3.106-1.391 3.106-3.106s-1.391-3.106-3.106-3.106c-1.716 0-3.106 1.391-3.106 3.106s1.39 3.106 3.106 3.106z"/><path d="m235.488 258.683c1.716 0 3.106-1.391 3.106-3.106s-1.391-3.106-3.106-3.106-3.106 1.391-3.106 3.106c0 1.716 1.391 3.106 3.106 3.106z"/><path d="m225.099 269.073c1.716 0 3.106-1.391 3.106-3.106 0-1.716-1.391-3.106-3.106-3.106-1.716 0-3.106 1.391-3.106 3.106s1.39 3.106 3.106 3.106z"/><path d="m208.18 65.722c0-1.715-1.39-3.106-3.106-3.106s-3.106 1.391-3.106 3.106 1.39 3.106 3.106 3.106 3.106-1.391 3.106-3.106z"/><path d="m215.464 78.463c1.716 0 3.106-1.391 3.106-3.106s-1.391-3.106-3.106-3.106-3.106 1.391-3.106 3.106c0 1.716 1.39 3.106 3.106 3.106z"/><path d="m215.464 98.488c1.716 0 3.106-1.391 3.106-3.106s-1.391-3.106-3.106-3.106-3.106 1.391-3.106 3.106 1.39 3.106 3.106 3.106z"/><path d="m215.464 138.537c1.716 0 3.106-1.391 3.106-3.106s-1.391-3.106-3.106-3.106-3.106 1.391-3.106 3.106 1.39 3.106 3.106 3.106z"/><path d="m215.464 158.561c1.716 0 3.106-1.391 3.106-3.106s-1.391-3.106-3.106-3.106-3.106 1.391-3.106 3.106 1.39 3.106 3.106 3.106z"/><path d="m215.464 178.586c1.716 0 3.106-1.391 3.106-3.106s-1.391-3.106-3.106-3.106-3.106 1.391-3.106 3.106 1.39 3.106 3.106 3.106z"/><path d="m215.464 198.61c1.716 0 3.106-1.391 3.106-3.106s-1.391-3.106-3.106-3.106-3.106 1.391-3.106 3.106 1.39 3.106 3.106 3.106z"/><path d="m215.464 218.635c1.716 0 3.106-1.391 3.106-3.106s-1.391-3.106-3.106-3.106-3.106 1.391-3.106 3.106 1.39 3.106 3.106 3.106z"/><path d="m215.464 238.659c1.716 0 3.106-1.391 3.106-3.106s-1.391-3.106-3.106-3.106-3.106 1.391-3.106 3.106 1.39 3.106 3.106 3.106z"/><path d="m215.464 258.683c1.716 0 3.106-1.391 3.106-3.106s-1.391-3.106-3.106-3.106-3.106 1.391-3.106 3.106c0 1.716 1.39 3.106 3.106 3.106z"/><path d="m215.464 278.708c1.716 0 3.106-1.391 3.106-3.106s-1.391-3.106-3.106-3.106-3.106 1.391-3.106 3.106 1.39 3.106 3.106 3.106z"/><path d="m185.05 42.591c-1.715 0-3.106 1.391-3.106 3.106s1.39 3.106 3.106 3.106 3.106-1.391 3.106-3.106-1.39-3.106-3.106-3.106z"/><path d="m195.439 52.227c-1.715 0-3.106 1.391-3.106 3.106 0 1.716 1.391 3.106 3.106 3.106 1.716 0 3.106-1.391 3.106-3.106 0-1.716-1.39-3.106-3.106-3.106z"/><path d="m195.439 358.806c1.716 0 3.106-1.391 3.106-3.106s-1.391-3.106-3.106-3.106-3.106 1.391-3.106 3.106 1.391 3.106 3.106 3.106z"/><path d="m185.05 369.195c1.716 0 3.106-1.391 3.106-3.106 0-1.716-1.391-3.106-3.106-3.106s-3.106 1.391-3.106 3.106 1.39 3.106 3.106 3.106z"/><path d="m175.414 32.202c-1.715 0-3.106 1.391-3.106 3.106s1.391 3.106 3.106 3.106c1.716 0 3.106-1.391 3.106-3.106.001-1.715-1.39-3.106-3.106-3.106z"/><path d="m175.414 378.83c1.716 0 3.106-1.391 3.106-3.106s-1.391-3.106-3.106-3.106-3.106 1.391-3.106 3.106c.001 1.716 1.391 3.106 3.106 3.106z"/><path d="m496.17 322.472c1.715 0 3.107-1.39 3.107-3.106s-1.391-3.106-3.107-3.106c-1.715 0-3.106 1.39-3.106 3.106s1.391 3.106 3.106 3.106z"/><path d="m485.781 326.649c-1.715 0-3.106 1.391-3.106 3.106 0 1.716 1.391 3.106 3.106 3.106 1.716 0 3.106-1.39 3.106-3.106 0-1.715-1.391-3.106-3.106-3.106z"/><path d="m496.17 342.496c1.715 0 3.107-1.39 3.107-3.106 0-1.715-1.391-3.106-3.107-3.106-1.715 0-3.106 1.391-3.106 3.106 0 1.716 1.391 3.106 3.106 3.106z"/><path d="m485.781 346.674c-1.715 0-3.106 1.391-3.106 3.106 0 1.716 1.391 3.106 3.106 3.106 1.716 0 3.106-1.39 3.106-3.106s-1.391-3.106-3.106-3.106z"/><path d="m496.17 362.521c1.715 0 3.107-1.39 3.107-3.106s-1.391-3.106-3.107-3.106c-1.715 0-3.106 1.391-3.106 3.106 0 1.716 1.391 3.106 3.106 3.106z"/><path d="m485.781 366.698c-1.715 0-3.106 1.391-3.106 3.106s1.391 3.106 3.106 3.106c1.716 0 3.106-1.39 3.106-3.106s-1.391-3.106-3.106-3.106z"/><path d="m496.17 382.545c1.715 0 3.107-1.39 3.107-3.106s-1.391-3.106-3.107-3.106c-1.715 0-3.106 1.391-3.106 3.106 0 1.716 1.391 3.106 3.106 3.106z"/><path d="m485.781 386.722c-1.715 0-3.106 1.391-3.106 3.106 0 1.716 1.391 3.106 3.106 3.106 1.716 0 3.106-1.39 3.106-3.106 0-1.715-1.391-3.106-3.106-3.106z"/><path d="m496.17 402.57c1.715 0 3.107-1.39 3.107-3.106s-1.391-3.106-3.107-3.106c-1.715 0-3.106 1.391-3.106 3.106s1.391 3.106 3.106 3.106z"/><path d="m465.756 292.812c1.716 0 3.106-1.39 3.106-3.106s-1.391-3.106-3.106-3.106-3.106 1.391-3.106 3.106c0 1.716 1.391 3.106 3.106 3.106z"/><path d="m476.145 302.448c1.715 0 3.107-1.391 3.107-3.106 0-1.716-1.391-3.106-3.107-3.106s-3.106 1.391-3.106 3.106 1.391 3.106 3.106 3.106z"/><path d="m476.145 316.26c-1.715 0-3.106 1.39-3.106 3.106 0 1.715 1.391 3.106 3.106 3.106s3.107-1.39 3.107-3.106-1.391-3.106-3.107-3.106z"/><path d="m465.756 326.649c-1.715 0-3.106 1.391-3.106 3.106 0 1.716 1.391 3.106 3.106 3.106 1.716 0 3.106-1.39 3.106-3.106 0-1.715-1.39-3.106-3.106-3.106z"/><path d="m476.145 336.284c-1.715 0-3.106 1.391-3.106 3.106 0 1.716 1.391 3.106 3.106 3.106s3.107-1.39 3.107-3.106c0-1.715-1.391-3.106-3.107-3.106z"/><path d="m465.756 346.674c-1.715 0-3.106 1.391-3.106 3.106 0 1.716 1.391 3.106 3.106 3.106 1.716 0 3.106-1.39 3.106-3.106s-1.39-3.106-3.106-3.106z"/><path d="m476.145 356.309c-1.715 0-3.106 1.391-3.106 3.106 0 1.716 1.391 3.106 3.106 3.106s3.107-1.39 3.107-3.106c0-1.715-1.391-3.106-3.107-3.106z"/><path d="m465.756 366.698c-1.715 0-3.106 1.391-3.106 3.106s1.391 3.106 3.106 3.106c1.716 0 3.106-1.39 3.106-3.106s-1.39-3.106-3.106-3.106z"/><path d="m476.145 376.333c-1.715 0-3.106 1.391-3.106 3.106 0 1.716 1.391 3.106 3.106 3.106s3.107-1.39 3.107-3.106c0-1.715-1.391-3.106-3.107-3.106z"/><path d="m465.756 386.722c-1.715 0-3.106 1.391-3.106 3.106 0 1.716 1.391 3.106 3.106 3.106 1.716 0 3.106-1.39 3.106-3.106 0-1.715-1.39-3.106-3.106-3.106z"/><path d="m476.145 396.358c-1.715 0-3.106 1.391-3.106 3.106s1.391 3.106 3.106 3.106 3.107-1.39 3.107-3.106-1.391-3.106-3.107-3.106z"/><path d="m476.145 422.594c1.715 0 3.107-1.39 3.107-3.106s-1.391-3.106-3.107-3.106-3.106 1.391-3.106 3.106c0 1.716 1.391 3.106 3.106 3.106z"/><path d="m465.756 426.772c-1.715 0-3.106 1.391-3.106 3.106s1.391 3.106 3.106 3.106c1.716 0 3.106-1.39 3.106-3.106s-1.39-3.106-3.106-3.106z"/><path d="m445.732 272.788c1.715 0 3.106-1.39 3.106-3.106s-1.391-3.106-3.106-3.106c-1.716 0-3.106 1.391-3.106 3.106s1.39 3.106 3.106 3.106z"/><path d="m456.121 282.423c1.715 0 3.106-1.391 3.106-3.106 0-1.716-1.391-3.106-3.106-3.106s-3.106 1.391-3.106 3.106c0 1.716 1.391 3.106 3.106 3.106z"/><path d="m445.732 292.812c1.715 0 3.106-1.39 3.106-3.106s-1.391-3.106-3.106-3.106c-1.716 0-3.106 1.391-3.106 3.106 0 1.716 1.39 3.106 3.106 3.106z"/><path d="m456.121 302.448c1.715 0 3.106-1.391 3.106-3.106 0-1.716-1.391-3.106-3.106-3.106s-3.106 1.391-3.106 3.106 1.391 3.106 3.106 3.106z"/><path d="m445.732 312.836c1.715 0 3.106-1.39 3.106-3.106s-1.391-3.106-3.106-3.106c-1.716 0-3.106 1.391-3.106 3.106 0 1.716 1.39 3.106 3.106 3.106z"/><path d="m456.121 336.284c-1.715 0-3.106 1.391-3.106 3.106 0 1.716 1.391 3.106 3.106 3.106s3.106-1.39 3.106-3.106c0-1.715-1.391-3.106-3.106-3.106z"/><path d="m445.732 346.674c-1.716 0-3.106 1.391-3.106 3.106 0 1.716 1.39 3.106 3.106 3.106 1.715 0 3.106-1.39 3.106-3.106s-1.391-3.106-3.106-3.106z"/><path d="m456.121 356.309c-1.715 0-3.106 1.391-3.106 3.106 0 1.716 1.391 3.106 3.106 3.106s3.106-1.39 3.106-3.106c0-1.715-1.391-3.106-3.106-3.106z"/><path d="m445.732 366.698c-1.716 0-3.106 1.391-3.106 3.106s1.39 3.106 3.106 3.106c1.715 0 3.106-1.39 3.106-3.106s-1.391-3.106-3.106-3.106z"/><path d="m456.121 376.333c-1.715 0-3.106 1.391-3.106 3.106 0 1.716 1.391 3.106 3.106 3.106s3.106-1.39 3.106-3.106c0-1.715-1.391-3.106-3.106-3.106z"/><path d="m445.732 406.747c-1.716 0-3.106 1.39-3.106 3.106s1.39 3.106 3.106 3.106c1.715 0 3.106-1.39 3.106-3.106 0-1.715-1.391-3.106-3.106-3.106z"/><path d="m456.121 416.382c-1.715 0-3.106 1.391-3.106 3.106s1.391 3.106 3.106 3.106 3.106-1.39 3.106-3.106c0-1.715-1.391-3.106-3.106-3.106z"/><path d="m445.732 426.772c-1.716 0-3.106 1.391-3.106 3.106s1.39 3.106 3.106 3.106c1.715 0 3.106-1.39 3.106-3.106s-1.391-3.106-3.106-3.106z"/><path d="m456.121 436.407c-1.715 0-3.106 1.391-3.106 3.106s1.391 3.106 3.106 3.106 3.106-1.391 3.106-3.106c0-1.716-1.391-3.106-3.106-3.106z"/><path d="m445.732 446.796c-1.716 0-3.106 1.391-3.106 3.106s1.39 3.106 3.106 3.106c1.715 0 3.106-1.39 3.106-3.106 0-1.715-1.391-3.106-3.106-3.106z"/><path d="m425.707 252.763c1.715 0 3.106-1.39 3.106-3.106 0-1.715-1.391-3.106-3.106-3.106-1.716 0-3.106 1.39-3.106 3.106.001 1.716 1.391 3.106 3.106 3.106z"/><path d="m436.097 262.398c1.715 0 3.106-1.39 3.106-3.106 0-1.715-1.391-3.106-3.106-3.106s-3.106 1.391-3.106 3.106c0 1.716 1.39 3.106 3.106 3.106z"/><path d="m425.707 272.788c1.715 0 3.106-1.39 3.106-3.106s-1.391-3.106-3.106-3.106c-1.716 0-3.106 1.391-3.106 3.106.001 1.715 1.391 3.106 3.106 3.106z"/><path d="m436.097 282.423c1.715 0 3.106-1.391 3.106-3.106 0-1.716-1.391-3.106-3.106-3.106s-3.106 1.391-3.106 3.106c0 1.716 1.39 3.106 3.106 3.106z"/><path d="m425.707 292.812c1.715 0 3.106-1.39 3.106-3.106s-1.391-3.106-3.106-3.106c-1.716 0-3.106 1.391-3.106 3.106.001 1.716 1.391 3.106 3.106 3.106z"/><path d="m436.097 302.448c1.715 0 3.106-1.391 3.106-3.106 0-1.716-1.391-3.106-3.106-3.106s-3.106 1.391-3.106 3.106 1.39 3.106 3.106 3.106z"/><path d="m436.097 336.284c-1.715 0-3.106 1.391-3.106 3.106 0 1.716 1.391 3.106 3.106 3.106s3.106-1.39 3.106-3.106c0-1.715-1.391-3.106-3.106-3.106z"/><path d="m436.097 356.309c-1.715 0-3.106 1.391-3.106 3.106 0 1.716 1.391 3.106 3.106 3.106s3.106-1.39 3.106-3.106c0-1.715-1.391-3.106-3.106-3.106z"/><path d="m436.097 376.333c-1.715 0-3.106 1.391-3.106 3.106 0 1.716 1.391 3.106 3.106 3.106s3.106-1.39 3.106-3.106c0-1.715-1.391-3.106-3.106-3.106z"/><path d="m436.097 416.382c-1.715 0-3.106 1.391-3.106 3.106s1.391 3.106 3.106 3.106 3.106-1.39 3.106-3.106c0-1.715-1.391-3.106-3.106-3.106z"/><path d="m425.707 426.772c-1.716 0-3.106 1.391-3.106 3.106s1.39 3.106 3.106 3.106c1.715 0 3.106-1.39 3.106-3.106s-1.39-3.106-3.106-3.106z"/><path d="m436.097 436.407c-1.715 0-3.106 1.391-3.106 3.106s1.391 3.106 3.106 3.106 3.106-1.391 3.106-3.106c0-1.716-1.391-3.106-3.106-3.106z"/><path d="m425.707 446.796c-1.716 0-3.106 1.391-3.106 3.106s1.39 3.106 3.106 3.106c1.715 0 3.106-1.39 3.106-3.106 0-1.715-1.39-3.106-3.106-3.106z"/><path d="m436.097 456.431c-1.715 0-3.106 1.391-3.106 3.106s1.391 3.106 3.106 3.106 3.106-1.391 3.106-3.106-1.391-3.106-3.106-3.106z"/><path d="m425.707 466.82c-1.716 0-3.106 1.391-3.106 3.106s1.39 3.106 3.106 3.106c1.715 0 3.106-1.39 3.106-3.106 0-1.715-1.39-3.106-3.106-3.106z"/><path d="m416.072 236.162c-1.715 0-3.106 1.391-3.106 3.106s1.391 3.106 3.106 3.106c1.716 0 3.107-1.39 3.107-3.106-.001-1.715-1.391-3.106-3.107-3.106z"/><path d="m416.072 256.187c-1.715 0-3.106 1.391-3.106 3.106s1.391 3.106 3.106 3.106c1.716 0 3.107-1.39 3.107-3.106-.001-1.716-1.391-3.106-3.107-3.106z"/><path d="m405.683 266.576c-1.716 0-3.106 1.391-3.106 3.106s1.39 3.106 3.106 3.106 3.106-1.39 3.106-3.106-1.391-3.106-3.106-3.106z"/><path d="m416.072 276.211c-1.715 0-3.106 1.391-3.106 3.106s1.391 3.106 3.106 3.106c1.716 0 3.107-1.391 3.107-3.106-.001-1.715-1.391-3.106-3.107-3.106z"/><path d="m416.072 436.407c-1.715 0-3.106 1.391-3.106 3.106s1.391 3.106 3.106 3.106c1.716 0 3.107-1.391 3.107-3.106-.001-1.716-1.391-3.106-3.107-3.106z"/><path d="m405.683 446.796c-1.716 0-3.106 1.391-3.106 3.106s1.39 3.106 3.106 3.106 3.106-1.39 3.106-3.106c0-1.715-1.391-3.106-3.106-3.106z"/><path d="m416.072 456.431c-1.715 0-3.106 1.391-3.106 3.106s1.391 3.106 3.106 3.106c1.716 0 3.107-1.391 3.107-3.106-.001-1.715-1.391-3.106-3.107-3.106z"/><path d="m416.072 476.456c-1.715 0-3.106 1.39-3.106 3.106 0 1.715 1.391 3.106 3.106 3.106 1.716 0 3.107-1.39 3.107-3.106-.001-1.716-1.391-3.106-3.107-3.106z"/><path d="m396.048 222.349c1.715 0 3.106-1.39 3.106-3.106s-1.391-3.106-3.106-3.106-3.106 1.391-3.106 3.106c0 1.716 1.39 3.106 3.106 3.106z"/><path d="m385.658 232.739c1.716 0 3.106-1.39 3.106-3.106s-1.391-3.106-3.106-3.106-3.106 1.391-3.106 3.106c.001 1.715 1.391 3.106 3.106 3.106z"/><path d="m396.048 242.374c1.715 0 3.106-1.39 3.106-3.106s-1.391-3.106-3.106-3.106-3.106 1.391-3.106 3.106c0 1.716 1.39 3.106 3.106 3.106z"/><path d="m385.658 252.763c1.716 0 3.106-1.39 3.106-3.106 0-1.715-1.391-3.106-3.106-3.106s-3.106 1.39-3.106 3.106c.001 1.716 1.391 3.106 3.106 3.106z"/><path d="m385.658 466.82c-1.715 0-3.106 1.391-3.106 3.106s1.39 3.106 3.106 3.106 3.106-1.39 3.106-3.106c.001-1.715-1.39-3.106-3.106-3.106z"/><path d="m396.048 476.456c-1.715 0-3.106 1.39-3.106 3.106 0 1.715 1.391 3.106 3.106 3.106s3.106-1.39 3.106-3.106-1.391-3.106-3.106-3.106z"/><path d="m385.658 486.845c-1.715 0-3.106 1.391-3.106 3.106 0 1.716 1.39 3.106 3.106 3.106s3.106-1.39 3.106-3.106c.001-1.715-1.39-3.106-3.106-3.106z"/><path d="m396.048 496.48c-1.715 0-3.106 1.391-3.106 3.106 0 1.716 1.391 3.106 3.106 3.106s3.106-1.39 3.106-3.106c0-1.715-1.391-3.106-3.106-3.106z"/><path d="m376.023 222.349c1.715 0 3.106-1.39 3.106-3.106s-1.391-3.106-3.106-3.106-3.106 1.391-3.106 3.106c0 1.716 1.391 3.106 3.106 3.106z"/><path d="m365.634 232.739c1.716 0 3.106-1.39 3.106-3.106s-1.391-3.106-3.106-3.106c-1.716 0-3.106 1.391-3.106 3.106s1.39 3.106 3.106 3.106z"/><path d="m376.023 242.374c1.715 0 3.106-1.39 3.106-3.106s-1.391-3.106-3.106-3.106-3.106 1.391-3.106 3.106c0 1.716 1.391 3.106 3.106 3.106z"/><path d="m376.023 476.456c-1.715 0-3.106 1.39-3.106 3.106 0 1.715 1.391 3.106 3.106 3.106s3.106-1.39 3.106-3.106-1.391-3.106-3.106-3.106z"/><path d="m365.634 486.845c-1.716 0-3.106 1.391-3.106 3.106 0 1.716 1.39 3.106 3.106 3.106s3.106-1.39 3.106-3.106c0-1.715-1.39-3.106-3.106-3.106z"/><path d="m376.023 496.48c-1.715 0-3.106 1.391-3.106 3.106 0 1.716 1.391 3.106 3.106 3.106s3.106-1.39 3.106-3.106c0-1.715-1.391-3.106-3.106-3.106z"/><path d="m355.999 222.349c1.715 0 3.106-1.39 3.106-3.106s-1.391-3.106-3.106-3.106-3.106 1.391-3.106 3.106c0 1.716 1.39 3.106 3.106 3.106z"/><path d="m355.999 496.48c-1.715 0-3.106 1.391-3.106 3.106 0 1.716 1.391 3.106 3.106 3.106s3.106-1.39 3.106-3.106c0-1.715-1.391-3.106-3.106-3.106z"/><path d="m506.327 295.518-86.684-86.684c-.751-.751-1.77-1.173-2.832-1.173h-122.59c-1.062 0-2.081.422-2.832 1.173l-23.589 23.589v-154.615c0-1.431-.764-2.753-2.002-3.468l-127.83-73.803c-1.24-.716-2.765-.716-4.005 0l-127.83 73.803c-1.239.715-2.003 2.037-2.003 3.468v256.985c0 1.431.764 2.753 2.003 3.468l127.83 73.803c.62.358 1.311.537 2.003.537.691 0 1.382-.179 2.002-.537l65.564-37.854v46.731c0 1.062.422 2.081 1.173 2.832l86.684 86.684c.751.751 1.77 1.173 2.832 1.173h122.59c1.062 0 2.081-.422 2.832-1.173l86.684-86.684c.751-.751 1.173-1.77 1.173-2.832v-122.591c.001-1.062-.422-2.08-1.173-2.832zm-80.285-68.958c-.111-.012-.22-.034-.335-.034-1.716 0-3.106 1.391-3.106 3.106 0 1.716 1.39 3.106 3.106 3.106 1.715 0 3.106-1.39 3.106-3.106 0-.115-.022-.223-.034-.335l6.905 6.905c-1.519.203-2.694 1.49-2.694 3.065 0 1.715 1.391 3.106 3.106 3.106 1.574 0 2.861-1.175 3.065-2.694l6.905 6.905c-.111-.012-.22-.034-.335-.034-1.716 0-3.106 1.39-3.106 3.106s1.39 3.106 3.106 3.106c1.715 0 3.106-1.39 3.106-3.106 0-.115-.021-.223-.034-.335l6.905 6.906c-1.519.203-2.695 1.49-2.695 3.065 0 1.715 1.391 3.106 3.106 3.106 1.574 0 2.862-1.176 3.065-2.694l6.905 6.905c-.111-.012-.22-.034-.335-.034-1.715 0-3.106 1.391-3.106 3.106s1.391 3.106 3.106 3.106c1.716 0 3.106-1.39 3.106-3.106 0-.115-.022-.224-.034-.335l6.906 6.905c-1.519.203-2.695 1.49-2.695 3.065 0 1.715 1.391 3.106 3.106 3.106 1.574 0 2.862-1.176 3.065-2.695l6.906 6.906c-.112-.012-.22-.034-.335-.034-1.715 0-3.106 1.391-3.106 3.106s1.391 3.106 3.106 3.106c1.716 0 3.106-1.39 3.106-3.106 0-.115-.022-.224-.034-.335l7.424 7.423-27.718 11.617c-.497-1.053-1.56-1.787-2.802-1.787-1.715 0-3.106 1.391-3.106 3.106 0 .378.078.737.202 1.072l-24.063 10.085c.256-.452.414-.966.414-1.522 0-1.716-1.391-3.106-3.106-3.106s-3.106 1.39-3.106 3.106c0 1.435.979 2.631 2.302 2.987l-7.297 3.058-38.3-38.299 14.489-34.75c.446.248.952.401 1.498.401 1.716 0 3.106-1.39 3.106-3.106 0-1.412-.948-2.591-2.239-2.968l10.179-24.412c1.267-.273 2.234-1.321 2.408-2.622zm-3.078 105.147v55.875l-39.51 39.51h-55.874l-39.51-39.51v-55.875l39.51-39.509h55.874zm-12.16-116.036-4.55 10.913c-.186-.035-.375-.058-.571-.058-1.716 0-3.106 1.391-3.106 3.106 0 1.059.532 1.992 1.341 2.552l-21.683 52.003h-54.205l-28.624-68.517zm-118.559 3.635 28.553 68.346-38.433 38.433-68.997-27.901zm-32.454 21.127-42.088 42.088-5.508-5.532v-143.288c0-.184-.013-.365-.038-.544l47.634-47.634zm-120.742-230.023 23.41 13.515c-.34.498-.539 1.099-.539 1.748 0 1.715 1.39 3.106 3.106 3.106 1.232 0 2.286-.723 2.789-1.762l45.385 26.203c-.518.555-.841 1.294-.841 2.112 0 1.716 1.391 3.106 3.106 3.106 1.399 0 2.569-.932 2.957-2.204l37.614 21.716-7.807 7.807c0-.004.001-.008.001-.012 0-1.715-1.391-3.106-3.106-3.106s-3.106 1.391-3.106 3.106 1.39 3.106 3.106 3.106c.004 0 .008-.001.012-.001l-6.542 6.542c0-.004.001-.008.001-.012 0-1.715-1.391-3.106-3.106-3.106s-3.106 1.391-3.106 3.106 1.391 3.106 3.106 3.106c.004 0 .008-.001.012-.001l-7.296 7.296c0-.004.001-.008.001-.012 0-1.716-1.391-3.106-3.106-3.106-1.716 0-3.106 1.391-3.106 3.106s1.39 3.106 3.106 3.106c.004 0 .007-.001.012-.001l-6.542 6.542c0-.004.001-.008.001-.012 0-1.715-1.391-3.106-3.106-3.106s-3.106 1.391-3.106 3.106 1.391 3.106 3.106 3.106c.004 0 .008-.001.012-.001l-9.365 9.365-67.061-38.718v-78.746zm-8.01 1.063v78.749l-67.207 38.802-48.292-50.867zm-118.899 74.737 47.596 50.134v140.1l-47.596 47.596zm119.63 315.339-117.799-68.012 49.925-49.925 67.874 39.188zm4.196-85.576-68.219-39.387v-140.573l68.219-39.386 68.219 39.386v140.573zm3.814 7.047 67.906-39.206 4.353 4.372-7.332 7.333c-.751.751-1.173 1.77-1.173 2.832v45.033c-.93.537-1.564 1.53-1.564 2.681s.633 2.145 1.564 2.681v14.662c-.864.499-1.458 1.394-1.54 2.442l-33.938 19.594c-.307-1.393-1.544-2.437-3.029-2.437-1.715 0-3.106 1.391-3.106 3.106 0 .908.396 1.717 1.018 2.285l-7.379 4.26c-.057-.003-.11-.016-.168-.016-1.209 0-2.245.697-2.758 1.706l-12.852 7.42v-78.748zm71.762-16.933 68.517 27.706v51.723l-68.517 28.928zm81.413 194.607-78.7-78.7 68.133-28.765 38.616 38.616zm7.456 2.925 27.914-68.517h53.74l22.145 52.13c-.968.526-1.632 1.539-1.632 2.718 0 1.716 1.39 3.106 3.106 3.106.327 0 .636-.064.933-.158l4.554 10.721zm188.475-73.732c0-.003.001-.006.001-.009 0-1.716-1.391-3.106-3.106-3.106s-3.106 1.391-3.106 3.106 1.391 3.106 3.106 3.106c.003 0 .006-.001.009-.001l-6.539 6.539c0-.003.001-.006.001-.009 0-1.716-1.391-3.106-3.107-3.106s-3.106 1.391-3.106 3.106 1.391 3.106 3.106 3.106c.003 0 .006-.001.009-.001l-7.293 7.293c0-.003.001-.006.001-.009 0-1.716-1.391-3.106-3.106-3.106s-3.106 1.391-3.106 3.106 1.391 3.106 3.106 3.106c.003 0 .006-.001.009-.001l-6.539 6.539c0-.003.001-.006.001-.009 0-1.716-1.391-3.106-3.106-3.106s-3.106 1.391-3.106 3.106 1.391 3.106 3.106 3.106c.003 0 .006-.001.009-.001l-7.293 7.293c0-.003.001-.006.001-.009 0-1.716-1.391-3.106-3.106-3.106-1.716 0-3.106 1.391-3.106 3.106s1.39 3.106 3.106 3.106c.003 0 .006-.001.009-.001l-6.539 6.539c0-.003.001-.006.001-.008 0-1.716-1.391-3.106-3.106-3.106s-3.106 1.39-3.106 3.106c0 1.715 1.391 3.106 3.106 3.106.003 0 .006-.001.009-.001l-7.293 7.293c0-.003.001-.006.001-.009 0-1.715-1.391-3.106-3.106-3.106-1.716 0-3.106 1.391-3.106 3.106 0 1.716 1.39 3.106 3.106 3.106.003 0 .006-.001.009-.001l-6.539 6.539c0-.003.001-.006.001-.009 0-1.43-.971-2.621-2.286-2.983l-10.103-23.783c1.167-.447 2-1.569 2-2.894 0-1.716-1.391-3.106-3.106-3.106-.472 0-.914.113-1.314.301l-14.793-34.823 38.932-38.931 7.249 3.025c-1.553.172-2.765 1.473-2.765 3.072 0 1.715 1.391 3.106 3.106 3.106s3.106-1.39 3.106-3.106c0-.727-.26-1.387-.679-1.917l24.828 10.362c-.432.533-.701 1.204-.701 1.943 0 1.716 1.391 3.106 3.106 3.106 1.598 0 2.899-1.211 3.072-2.763l28.044 11.705zm10.605-15.574-10.607-4.427c0-.011.003-.021.003-.033 0-1.716-1.391-3.106-3.106-3.106-.864 0-1.644.354-2.207.923l-36.31-15.155c.936-.535 1.574-1.531 1.574-2.687 0-1.716-1.391-3.106-3.106-3.106-1.716 0-3.106 1.391-3.106 3.106 0 .278.048.543.117.8l-11.77-4.912v-52.868l12.532-5.252c-.543.559-.879 1.319-.879 2.16 0 1.716 1.39 3.106 3.106 3.106 1.715 0 3.106-1.39 3.106-3.106 0-1.707-1.377-3.089-3.081-3.104l37.222-15.6c.497 1.052 1.56 1.785 2.801 1.785 1.716 0 3.106-1.39 3.106-3.106 0-.378-.078-.736-.201-1.07l10.805-4.529z"/></g></g></svg>