<?xml version="1.0" encoding="iso-8859-1"?>
<!-- Generator: Adobe Illustrator 19.0.0, SVG Export Plug-In . SVG Version: 6.00 Build 0)  -->
<svg version="1.1" id="Capa_1"
	xmlns="http://www.w3.org/2000/svg"
	xmlns:xlink="http://www.w3.org/1999/xlink" x="0px" y="0px" viewBox="0 0 512 512" style="enable-background:new 0 0 512 512;" xml:space="preserve">
	<path style="fill:#f4f4f4;" d="M422,241v15c0,90.899-75.099,166-166,166S90,346.899,90,256c0-90.901,75.099-166,166-166
	c32.1,0,64.3,9.3,90.7,26.7l-28.799,20.698L484.999,221.8L464,33l-40.5,28.8c-8.099-6.901-16.8-13.5-25.8-19.501
	C356,14.7,306.4,0,256,0C115.3,0,0,115.3,0,256s115.3,256,256,256s256-115.3,256-256v-15H422z"/>
	<g>
		<path style="fill:#f4f4f4;" d="M346.7,116.7C320.3,99.3,288.1,90,256,90V0c50.4,0,100,14.7,141.7,42.299
		c9,6,17.701,12.599,25.8,19.501l40.501-28.801L485,221.799l-167.098-84.401L346.7,116.7z"/>
		<path style="fill:#f4f4f4;" d="M512,241v15c0,140.7-115.3,256-256,256v-90c90.901,0,166-75.101,166-166v-15H512z"/>
	</g>

</svg>
