<?xml version="1.0" encoding="iso-8859-1"?>
<!-- Generator: Adobe Illustrator 19.0.0, SVG Export Plug-In . SVG Version: 6.00 Build 0)  -->
<svg version="1.1" id="Capa_1" xmlns="http://www.w3.org/2000/svg" xmlns:xlink="http://www.w3.org/1999/xlink" x="0px" y="0px"
	 viewBox="0 0 512.008 512.008" style="enable-background:new 0 0 512.008 512.008;" xml:space="preserve">
<g transform="translate(0 -1)">
	<g>
		<g fill="#f4f4f4">
			<path d="M490.472,1.008H243.405c-6.834-0.04-13.295,3.117-17.463,8.533H64.005c-11.203-0.04-21.48,6.216-26.59,16.186
				S33.226,47.692,39.8,56.764c-8.799,5.406-14.17,14.983-14.195,25.31c0.034,5.024,1.351,9.957,3.827,14.329
				c-9.136,2.81-16.352,9.859-19.375,18.927c-3.023,9.068-1.48,19.037,4.143,26.767c-11.371,6.988-16.708,20.685-13.061,33.524
				c3.647,12.839,15.386,21.686,28.733,21.653h64c4.711,0.003,8.53,3.822,8.533,8.533v93.867
				c-0.032,17.229,12.803,31.77,29.903,33.877s33.081-8.883,37.233-25.604c0.711-1.218,1.1-2.597,1.131-4.007
				c0.128-52.417,24.886-101.726,66.85-133.136c1.914,0.55,3.892,0.842,5.883,0.869h247.067c11.558,0.306,21.186-8.793,21.533-20.35
				V21.358C511.658,9.801,502.029,0.701,490.472,1.008z M153.757,298.919c-0.024,0.261-0.152,0.487-0.152,0.755
				c0,9.426-7.641,17.067-17.067,17.067s-17.067-7.641-17.067-17.067v-93.867c-0.015-14.132-11.468-25.585-25.6-25.6h-64
				c-7.069,0-12.8-5.731-12.8-12.8c0-7.069,5.731-12.8,12.8-12.8h64c4.713,0,8.533-3.821,8.533-8.533s-3.821-8.533-8.533-8.533
				H38.405c-7.069,0-12.8-5.731-12.8-12.8c0-7.069,5.731-12.8,12.8-12.8h72.533c4.713,0,8.533-3.82,8.533-8.533
				s-3.82-8.533-8.533-8.533H55.472c-7.069,0-12.8-5.731-12.8-12.8c0-7.069,5.731-12.8,12.8-12.8h64c4.713,0,8.533-3.82,8.533-8.533
				s-3.82-8.533-8.533-8.533H64.005c-7.069,0-12.8-5.731-12.8-12.8c0-7.069,5.731-12.8,12.8-12.8h157.867v124.717
				c0.014,2.931,0.698,5.819,1.999,8.445C181.035,193.472,155.355,244.438,153.757,298.919z M290.138,154.608h-46.733
				c-2.383,0-4.467-1.533-4.467-3.283V21.358c0-1.75,2.083-3.283,4.467-3.283h46.733V154.608z M494.938,151.324
				c0,1.75-2.083,3.283-4.467,3.283H307.205V18.074h183.267c2.383,0,4.467,1.533,4.467,3.283V151.324z"/>
			<path d="M76.805,419.141c2.264,0.001,4.435-0.897,6.035-2.498c1.601-1.601,2.499-3.772,2.498-6.035v-8.533
				c0-4.713-3.82-8.533-8.533-8.533s-8.533,3.821-8.533,8.533v8.533c-0.001,2.264,0.897,4.435,2.498,6.035
				C72.37,418.244,74.541,419.142,76.805,419.141z"/>
			<path d="M76.805,436.208c-2.264-0.001-4.435,0.897-6.035,2.498c-1.601,1.601-2.499,3.772-2.498,6.035v8.533
				c0,4.713,3.82,8.533,8.533,8.533s8.533-3.821,8.533-8.533v-8.533c0.001-2.264-0.897-4.435-2.498-6.035
				C81.24,437.105,79.068,436.206,76.805,436.208z"/>
			<path d="M59.738,419.141h-8.533c-4.713,0-8.533,3.82-8.533,8.533s3.82,8.533,8.533,8.533h8.533c4.713,0,8.533-3.82,8.533-8.533
				S64.451,419.141,59.738,419.141z"/>
			<path d="M102.405,419.141h-8.533c-4.713,0-8.533,3.82-8.533,8.533s3.821,8.533,8.533,8.533h8.533c4.713,0,8.533-3.82,8.533-8.533
				S107.118,419.141,102.405,419.141z"/>
			<path d="M349.872,188.741c-89.544,0-162.133,72.59-162.133,162.133s72.59,162.133,162.133,162.133s162.133-72.59,162.133-162.133
				C511.903,261.373,439.373,188.843,349.872,188.741z M349.872,495.941c-80.118,0-145.067-64.949-145.067-145.067
				s64.949-145.067,145.067-145.067s145.067,64.949,145.067,145.067C494.849,430.955,429.953,495.852,349.872,495.941z"/>
			<path d="M324.272,316.741c0-14.138-11.461-25.6-25.6-25.6s-25.6,11.461-25.6,25.6s11.461,25.6,25.6,25.6
				C312.804,342.325,324.256,330.873,324.272,316.741z M290.138,316.741c0-4.713,3.82-8.533,8.533-8.533s8.533,3.82,8.533,8.533
				s-3.82,8.533-8.533,8.533C293.96,325.271,290.141,321.452,290.138,316.741z"/>
			<path d="M392.538,291.141c-14.138,0-25.6,11.461-25.6,25.6c0.015,14.132,11.468,25.585,25.6,25.6c14.138,0,25.6-11.462,25.6-25.6
				S406.677,291.141,392.538,291.141z M392.538,325.274c-4.713,0-8.533-3.82-8.533-8.533c0.003-4.711,3.822-8.53,8.533-8.533
				c4.713,0,8.533,3.82,8.533,8.533S397.251,325.274,392.538,325.274z"/>
			<path d="M401.497,393.882c-6.792-6.243-14.696-11.156-23.3-14.483c-18.237-7-38.421-7-56.658,0
				c-8.599,3.328-16.497,8.241-23.283,14.483c-6.686,6.102-12.084,13.48-15.875,21.7c-1.965,4.285-0.085,9.352,4.2,11.317
				c4.285,1.965,9.352,0.085,11.317-4.2c2.848-6.162,6.9-11.693,11.917-16.267c5.224-4.799,11.301-8.575,17.917-11.133
				c14.255-5.45,30.02-5.45,44.275,0c6.621,2.558,12.704,6.335,17.933,11.133c5.012,4.576,9.06,10.106,11.908,16.267
				c1.271,2.772,3.925,4.655,6.961,4.94c3.036,0.285,5.993-1.072,7.758-3.558c1.765-2.487,2.069-5.726,0.797-8.498
				C413.572,407.365,408.178,399.987,401.497,393.882z"/>
		</g>
	</g>
</g>
<g>
</g>
<g>
</g>
<g>
</g>
<g>
</g>
<g>
</g>
<g>
</g>
<g>
</g>
<g>
</g>
<g>
</g>
<g>
</g>
<g>
</g>
<g>
</g>
<g>
</g>
<g>
</g>
<g>
</g>
</svg>
