<svg height="511.999pt" viewBox="1 1 511.999 511.999" width="511.999pt"
    xmlns="http://www.w3.org/2000/svg">
    <g fill="#161929">
    <path d="m364.359375 223.929688c77.246094 4.800781 140.140625 62.660156 140.140625 139.953124 0 77.292969-62.988281 133.824219-140.140625 139.953126-88.089844 7-198.222656-41.839844-275.277344-128.957032-53.054687-59.980468-81.582031-157.949218-81.582031-227.425781 0-77.292969 62.742188-139.953125 140.140625-139.953125s137.09375 62.71875 140.140625 139.953125c.558594 14.136719 3.003906 37.988281 18.519531 53.484375 18.019531 17.992188 42.472657 22.023438 58.058594 22.992188zm0 0"/>
    <path d="m364.359375 453.835938c-88.089844 7-198.222656-41.839844-275.277344-128.957032-45.960937-51.960937-73.5-132.421875-80.046875-198.179687-1.007812 6.773437-1.535156 13.703125-1.535156 20.753906 0 69.476563 28.527344 167.445313 81.582031 227.425781 77.054688 87.117188 187.1875 135.957032 275.277344 128.957032 77.152344-6.128907 140.140625-62.660157 140.140625-139.953126 0-8.597656-.785156-16.957031-2.273438-25.03125-11.914062 64.273438-69.292968 109.539063-137.867187 114.984376zm0 0"/>
    <path d="m397.78125 229.507812c-10.71875-2.960937-21.90625-4.863281-33.421875-5.578124-15.585937-.96875-40.039063-5-58.058594-22.992188-15.515625-15.496094-17.960937-39.347656-18.519531-53.484375-.449219-11.382813-2.136719-22.445313-4.921875-33.042969-19.050781 4.039063-33.359375 21.132813-33.359375 41.613282 0 21.105468 8.554688 50.871093 24.457031 69.09375 23.101563 26.46875 56.121094 41.308593 82.527344 39.179687 20.507813-1.648437 37.664063-15.339844 41.296875-34.789063zm0 0"/>
    </g>
    <g fill="#4afe00">
        <path d="m15 147.453125c0-73.035156 59.5-132.453125 132.640625-132.453125 32.882813 0 64.25 12.296875 88.324219 34.617188l10.199218-10.996094c-26.855468-24.90625-61.84375-38.621094-98.523437-38.621094-81.410156 0-147.640625 66.148438-147.640625 147.453125 0 32.652344 6.183594 70.875 17.410156 107.621094l14.347656-4.382813c-10.808593-35.367187-16.757812-72.027344-16.757812-103.238281zm0 0"/>
        <path d="m347.382812 497c-85.214843 0-184.398437-49.886719-252.683593-127.089844-23.671875-26.761718-43.859375-63.140625-58.386719-105.203125l-14.175781 4.894531c15.160156 43.902344 36.363281 82.023438 61.324219 110.246094 35.542968 40.183594 79.34375 73.78125 126.667968 97.167969 46.320313 22.886719 93.78125 34.984375 137.25 34.984375 3.085938 0 6.183594-.0625 9.210938-.1875l-.609375-14.988281c-2.824219.117187-5.714844.175781-8.597657.175781zm0 0"/>
        <path d="m364.824219 216.445312c-22.914063-1.425781-40.820313-8.429687-53.222657-20.816406-10.097656-10.082031-15.4375-25.9375-16.324218-48.472656-1.429688-36.136719-14.96875-70.660156-38.128906-97.207031l-11.304688 9.859375c20.917969 23.980468 33.152344 55.210937 34.445312 87.941406 1.042969 26.484375 7.820313 45.617188 20.710938 58.492188 15.0625 15.042968 36.222656 23.511718 62.894531 25.171874 75.882813 4.71875 133.105469 61.667969 133.105469 132.46875 0 67.613282-53.265625 123.054688-126.652344 131.824219l1.777344 14.894531c38.273438-4.574218 73.367188-21.269531 98.820312-47.007812 26.472657-26.773438 41.054688-62.183594 41.054688-99.710938 0-78.835937-63.273438-142.222656-147.175781-147.4375zm0 0"/>
        <path d="m324.570312 267.613281 4.519532-14.304687c-18.320313-5.789063-35.890625-17.550782-49.480469-33.121094-14.84375-17.007812-22.609375-45.152344-22.609375-64.167969h-15c0 21.136719 8.230469 53.320313 26.308594 74.027344 15.375 17.617187 35.355468 30.957031 56.261718 37.566406zm0 0"/>
        <path d="m342.460938 256.367188-2.050782 14.859374c3.722656.511719 7.417969.773438 10.984375.773438 1.890625 0 3.773438-.074219 5.597657-.21875l-1.191407-14.953125c-4.183593.335937-8.714843.175781-13.339843-.460937zm0 0"/>
    </g>
    <g fill="#4afe00">
        <path d="m45 147.453125h-15c0-5.304687.359375-10.640625 1.070312-15.863281l14.863282 2.023437c-.621094 4.550781-.933594 9.210938-.933594 13.839844zm3.757812-27.507813-14.445312-4.039062c1.433594-5.125 3.234375-10.203125 5.359375-15.089844l13.757813 5.980469c-1.851563 4.261719-3.425782 8.683594-4.671876 13.148437zm11.097657-25.527343-12.816407-7.800781c10.316407-16.945313 24.863282-31.128907 42.066407-41.019532 17.746093-10.203125 37.988281-15.597656 58.535156-15.597656v15c-36.132813 0-68.949219 18.472656-87.785156 49.417969zm0 0"/>
        <path d="m346.53125 482c-5.082031-.023438-10.304688-.234375-15.523438-.628906l1.132813-14.957032c4.863281.367188 9.726563.5625 14.453125.585938zm-30.917969-2.308594c-5.003906-.707031-10.125-1.589844-15.222656-2.625l2.988281-14.699218c4.804688.976562 9.628906 1.808593 14.335938 2.476562zm-30.234375-6.117187c-31.960937-8.367188-65.117187-23.082031-95.890625-42.550781l8.019531-12.675782c29.484376 18.65625 61.183594 32.734375 91.667969 40.714844zm0 0"/>
        <path d="m482 363.882812h-15c0-27.015624-10.296875-51.324218-29.773438-70.300781l10.46875-10.746093c22.441407 21.867187 34.304688 49.890624 34.304688 81.046874zm0 0"/>
    </g>
</svg>